<svg width="556" height="236" viewBox="0 0 556 236" fill="none" xmlns="http://www.w3.org/2000/svg">
<g clip-path="url(#clip0_68_162)">
<path fill-rule="evenodd" clip-rule="evenodd" d="M185.2 117.374C185.2 95.0333 176.632 87.2763 165.498 87.2763C155.335 87.2763 145.796 95.0333 145.796 117.374C145.796 139.713 155.335 147.472 165.498 147.472C175.768 147.472 185.2 139.713 185.2 117.374ZM109.205 117.374C109.205 78.0393 129.612 55.6113 165.498 55.6113C201.385 55.6113 221.79 77.9113 221.79 117.374C221.79 156.891 201.385 179.137 165.498 179.137C129.612 179.137 109.205 157.095 109.205 117.374Z" fill="black"/>
<path fill-rule="evenodd" clip-rule="evenodd" d="M341.691 117.374C341.691 77.6663 363.686 55.6113 396.31 55.6113C428.856 55.6113 446.932 72.2183 448.472 102.598H412.058C410.388 90.1593 405.254 86.5723 396.401 86.5723C384.561 86.5723 378.282 95.8543 378.282 117.374C378.282 138.447 385.027 148.176 396.401 148.176C405.425 148.176 410.388 145.092 412.058 132.15H448.472C447.172 162.569 427.097 179.137 396.753 179.137C361.778 179.137 341.691 156.479 341.691 117.374Z" fill="black"/>
<mask id="mask0_68_162" style="mask-type:luminance" maskUnits="userSpaceOnUse" x="459" y="59" width="97" height="117">
<path d="M459.56 59.4844H555.531V175.265H459.56V59.4844Z" fill="white"/>
</mask>
<g mask="url(#mask0_68_162)">
<path fill-rule="evenodd" clip-rule="evenodd" d="M459.56 59.4844H494.301V101.826H520.79V59.4844H555.531V175.265H520.79V132.527H494.301V175.265H459.56V59.4844Z" fill="black"/>
</g>
<path fill-rule="evenodd" clip-rule="evenodd" d="M232.28 59.5244H266.499V133.814C266.499 142.939 271.213 150.249 280.341 150.249C290.381 150.249 296.346 144.065 296.346 128.493V59.4824H330.611V175.099H296.346V161.52C292.299 171.373 280.412 178.352 268.088 178.352C244.815 178.352 232.28 163.176 232.28 138.001V59.5244Z" fill="black"/>
<path fill-rule="evenodd" clip-rule="evenodd" d="M70.414 59.4844L54.576 135.38L38.548 59.4844H0L34.596 175.265H74.363L109.207 59.4844H70.414Z" fill="black"/>
<mask id="mask1_68_162" style="mask-type:luminance" maskUnits="userSpaceOnUse" x="304" y="188" width="186" height="48">
<path d="M304.482 188.201H489.212V235.106H304.482V188.201Z" fill="white"/>
</mask>
<g mask="url(#mask1_68_162)">
<path fill-rule="evenodd" clip-rule="evenodd" d="M396.847 204.64C376.502 204.64 362.148 198.105 349.044 188.201H304.482C324.912 217.292 357.72 235.106 396.847 235.106C435.974 235.106 468.782 217.292 489.212 188.201H444.648C431.546 198.105 417.192 204.64 396.847 204.64Z" fill="black"/>
</g>
<path fill-rule="evenodd" clip-rule="evenodd" d="M229.61 18.085C211.841 6.524 190.464 0 166.822 0C143.18 0 121.914 6.524 104.289 18.085C93.0623 25.451 83.3243 34.868 75.4033 45.975H120.405C133.214 36.644 147.287 30.465 166.822 30.465C186.357 30.465 200.55 36.644 213.511 45.975H258.788C250.771 34.868 240.93 25.451 229.61 18.085Z" fill="black"/>
</g>
<defs>
<clipPath id="clip0_68_162">
<rect width="556" height="236" fill="white"/>
</clipPath>
</defs>
</svg>
