<svg width="162" height="14" viewBox="0 0 162 14" fill="none" xmlns="http://www.w3.org/2000/svg">
<path d="M154.216 9.67733C154.216 10.9365 154.521 11.8971 155.131 12.5591C155.754 13.2211 156.513 13.5522 157.409 13.5522C158.305 13.5522 159.038 13.338 159.609 12.9096C160.181 12.4682 160.466 11.7803 160.466 10.8456C160.466 10.0019 160.018 9.24896 159.123 8.58693C158.733 8.30134 158.298 8.02225 157.818 7.74965C157.338 7.46407 156.857 7.172 156.377 6.87344C155.897 6.57487 155.462 6.26333 155.073 5.9388C154.177 5.18591 153.729 4.30969 153.729 3.31015C153.729 2.29764 154.093 1.49281 154.819 0.895688C155.559 0.298563 156.533 0 157.74 0C158.96 0 160.09 0.26611 161.128 0.798331C161.128 1.44738 161.031 2.56375 160.836 4.14743L160.544 4.06954C160.544 2.84933 160.246 1.94066 159.648 1.34353C159.051 0.733426 158.363 0.428373 157.584 0.428373C156.819 0.428373 156.202 0.655541 155.735 1.10988C155.267 1.55123 155.034 2.07696 155.034 2.68707C155.034 3.29717 155.196 3.8229 155.52 4.26426C155.858 4.69263 156.273 5.04961 156.767 5.33519C157.273 5.62077 157.818 5.9388 158.402 6.28929C158.986 6.6268 159.525 6.9643 160.018 7.30181C160.525 7.62633 160.94 8.05471 161.265 8.58693C161.602 9.11915 161.771 9.71627 161.771 10.3783C161.771 11.5726 161.342 12.4747 160.486 13.0848C159.642 13.6949 158.623 14 157.429 14C156.767 14 156.085 13.8962 155.384 13.6885C154.696 13.4808 154.131 13.1757 153.69 12.7733C153.69 11.9425 153.768 10.8911 153.924 9.61891L154.216 9.67733Z" fill="white"/>
<path d="M148.931 13.8053C148.607 13.8053 148.282 13.6431 147.958 13.3185C147.646 12.981 147.361 12.5657 147.101 12.0724C146.855 11.5791 146.562 11.0469 146.225 10.4757C145.887 9.89157 145.55 9.34637 145.212 8.84011C144.875 8.33385 144.447 7.90548 143.927 7.55499C143.408 7.2045 142.856 7.01628 142.272 6.99031V9.40478C142.272 10.8067 142.311 11.7608 142.389 12.2671C142.48 12.7604 142.603 13.0719 142.759 13.2017C143.071 13.4484 143.551 13.5717 144.2 13.5717L144.239 13.8053H139.021L139.059 13.5717C139.696 13.5717 140.163 13.4548 140.461 13.2212C140.708 13.0265 140.851 12.3904 140.89 11.313C140.916 10.8846 140.929 10.2485 140.929 9.40478V4.47849C140.929 3.0376 140.89 2.0835 140.812 1.61618C140.734 1.14887 140.617 0.856795 140.461 0.739967C140.163 0.51929 139.696 0.408951 139.059 0.408951L139.021 0.175293H143.538C146.809 0.175293 148.445 1.27868 148.445 3.48545C148.445 4.43306 148.107 5.23139 147.432 5.88044C146.77 6.51651 145.965 6.88647 145.018 6.99031C145.965 7.5485 146.842 8.574 147.646 10.0668C147.958 10.651 148.289 11.2091 148.639 11.7414C149.405 12.9616 150.392 13.5717 151.599 13.5717L151.638 13.8053H148.931ZM142.272 0.623137V6.60089H143.499C144.486 6.60089 145.303 6.34776 145.952 5.8415C146.601 5.33524 146.926 4.58234 146.926 3.5828C146.926 1.60969 145.797 0.623137 143.538 0.623137H142.272Z" fill="white"/>
<path d="M128.477 0C130.567 0 132.235 0.642559 133.482 1.92768C134.741 3.19982 135.37 4.85489 135.37 6.89291C135.37 8.91794 134.76 10.612 133.54 11.975C132.333 13.325 130.691 14 128.614 14C126.537 14 124.862 13.3185 123.59 11.9555C122.331 10.5925 121.701 8.89847 121.701 6.87344C121.701 4.83542 122.305 3.18034 123.512 1.90821C124.732 0.636069 126.387 0 128.477 0ZM128.594 13.5522C130.256 13.5522 131.515 12.955 132.372 11.7608C133.241 10.5535 133.676 8.96987 133.676 7.00974C133.676 5.04961 133.222 3.46593 132.313 2.25869C131.405 1.05146 130.12 0.447844 128.458 0.447844C126.809 0.447844 125.55 1.04497 124.68 2.23922C123.824 3.43347 123.395 5.01715 123.395 6.99026C123.395 8.95039 123.85 10.5341 124.758 11.7413C125.667 12.9485 126.946 13.5522 128.594 13.5522Z" fill="white"/>
<path d="M110.439 9.67733C110.439 10.9365 110.744 11.8971 111.354 12.5591C111.977 13.2211 112.737 13.5522 113.633 13.5522C114.528 13.5522 115.262 13.338 115.833 12.9096C116.404 12.4682 116.69 11.7803 116.69 10.8456C116.69 10.0019 116.242 9.24896 115.346 8.58693C114.957 8.30134 114.522 8.02225 114.041 7.74965C113.561 7.46407 113.081 7.172 112.601 6.87344C112.12 6.57487 111.685 6.26333 111.296 5.9388C110.4 5.18591 109.952 4.30969 109.952 3.31015C109.952 2.29764 110.316 1.49281 111.043 0.895688C111.783 0.298563 112.756 0 113.964 0C115.184 0 116.313 0.26611 117.352 0.798331C117.352 1.44738 117.254 2.56375 117.06 4.14743L116.767 4.06954C116.767 2.84933 116.469 1.94066 115.872 1.34353C115.275 0.733426 114.587 0.428373 113.808 0.428373C113.042 0.428373 112.425 0.655541 111.958 1.10988C111.491 1.55123 111.257 2.07696 111.257 2.68707C111.257 3.29717 111.419 3.8229 111.744 4.26426C112.081 4.69263 112.497 5.04961 112.99 5.33519C113.496 5.62077 114.041 5.9388 114.626 6.28929C115.21 6.6268 115.748 6.9643 116.242 7.30181C116.748 7.62633 117.163 8.05471 117.488 8.58693C117.825 9.11915 117.994 9.71627 117.994 10.3783C117.994 11.5726 117.566 12.4747 116.709 13.0848C115.865 13.6949 114.846 14 113.652 14C112.99 14 112.309 13.8962 111.608 13.6885C110.92 13.4808 110.355 13.1757 109.914 12.7733C109.914 11.9425 109.991 10.8911 110.147 9.61891L110.439 9.67733Z" fill="white"/>
<path d="M103.972 4.57585V9.40478C103.972 10.7937 104.011 11.7414 104.089 12.2476C104.18 12.7539 104.303 13.0719 104.459 13.2017C104.758 13.4484 105.232 13.5717 105.881 13.5717L105.92 13.8053H100.662L100.701 13.5717C101.026 13.5717 101.279 13.5587 101.461 13.5327C101.642 13.5068 101.811 13.4354 101.967 13.3185C102.136 13.2017 102.252 13.0719 102.317 12.9291C102.395 12.7733 102.46 12.5202 102.512 12.1697C102.577 11.7154 102.609 10.7937 102.609 9.40478V4.57585C102.609 3.22583 102.57 2.2847 102.493 1.75248C102.415 1.22026 102.298 0.889248 102.142 0.759438C101.831 0.512799 101.35 0.38948 100.701 0.38948L100.662 0.175293H105.92L105.881 0.38948C105.232 0.38948 104.758 0.512799 104.459 0.759438C104.135 1.03204 103.972 2.30418 103.972 4.57585Z" fill="white"/>
<path d="M86.5777 1.03204C86.5777 1.25272 86.5907 1.42796 86.6166 1.55777C86.6556 1.6746 86.6815 1.77196 86.6945 1.84984C86.7205 1.92773 86.7529 2.03807 86.7919 2.18086C86.8308 2.31067 86.8633 2.4275 86.8892 2.53134C86.9282 2.62221 86.9801 2.75851 87.045 2.94024C87.1099 3.12198 87.1618 3.27126 87.2008 3.38809C87.2527 3.50492 87.3176 3.68016 87.3955 3.91382C87.4864 4.14748 87.5578 4.3357 87.6097 4.47849L90.6472 12.7539L93.529 4.47849C94.1002 2.82991 94.3858 1.79792 94.3858 1.38253C94.3858 0.967134 94.2754 0.701024 94.0547 0.584195C93.8341 0.467366 93.4511 0.408951 92.9059 0.408951L92.867 0.175293H97.6375L97.5986 0.408951C97.1053 0.408951 96.7288 0.441404 96.4692 0.506309C96.2226 0.571214 95.9565 0.746457 95.6709 1.03204C95.3983 1.31762 95.1451 1.72003 94.9115 2.23927C94.6778 2.75851 94.3922 3.50492 94.0547 4.47849L90.7835 13.9027H89.5568L86.1104 4.47849C85.3834 2.53134 84.8707 1.38253 84.5721 1.03204C84.4553 0.889248 84.293 0.759437 84.0853 0.642608C83.8906 0.525779 83.6959 0.460875 83.5012 0.447894C83.3195 0.421932 83.0663 0.408951 82.7418 0.408951L82.7029 0.175293H87.9602L87.9212 0.408951C87.4279 0.408951 87.0775 0.454385 86.8698 0.545251C86.675 0.636118 86.5777 0.798381 86.5777 1.03204Z" fill="white"/>
<path d="M70.6953 0.175293C72.9281 0.175293 74.6026 0.370008 75.719 0.759438C76.2252 0.941172 76.7639 1.20079 77.3351 1.5383C77.9063 1.8758 78.3671 2.27821 78.7176 2.74553C79.081 3.21285 79.3796 3.80997 79.6133 4.53691C79.8599 5.26384 79.9832 6.08165 79.9832 6.99031C79.9832 7.886 79.8599 8.69731 79.6133 9.42425C79.3796 10.1382 79.081 10.7288 78.7176 11.1962C78.3671 11.6635 77.9257 12.0724 77.3935 12.4229C76.8743 12.7604 76.381 13.0135 75.9137 13.1822C75.4464 13.351 74.9271 13.4873 74.356 13.5911C73.5901 13.7339 72.8047 13.8053 71.9999 13.8053H66.7621L66.801 13.5717C67.4501 13.5717 67.9239 13.4484 68.2224 13.2017C68.547 12.9291 68.7092 11.6635 68.7092 9.40478V4.57585C68.7092 3.18688 68.6638 2.23927 68.5729 1.73301C68.4951 1.21377 68.3782 0.889248 68.2224 0.759438C67.9239 0.512799 67.4501 0.38948 66.801 0.38948L66.7621 0.175293H70.6953ZM70.7927 13.338C70.9485 13.351 71.2665 13.3575 71.7468 13.3575C72.2401 13.3575 72.7723 13.3056 73.3434 13.2017C73.9276 13.0979 74.5247 12.9032 75.1348 12.6176C75.7579 12.319 76.2901 11.9426 76.7315 11.4882C77.1858 11.0339 77.5558 10.4238 77.8414 9.65791C78.1399 8.87905 78.2892 7.99634 78.2892 7.00979C78.2892 6.01025 78.1464 5.12754 77.8608 4.36166C77.5753 3.59578 77.2053 2.98568 76.751 2.53134C76.2966 2.06403 75.7644 1.68109 75.1543 1.38253C74.0769 0.876267 72.8891 0.623137 71.591 0.623137C71.0069 0.623137 70.5006 0.66208 70.0722 0.739967V9.63844C70.0722 11.0404 70.1112 11.9685 70.1891 12.4229C70.267 12.8772 70.4682 13.1822 70.7927 13.338Z" fill="white"/>
<path d="M59.7081 13.5717C60.2014 13.5717 60.5454 13.5327 60.7401 13.4548C60.9478 13.377 61.0516 13.1758 61.0516 12.8512C61.0516 12.5267 60.7077 11.4233 60.0197 9.54108H54.0809C53.5227 11.1897 53.2436 12.2281 53.2436 12.6565C53.2436 13.0719 53.3474 13.3315 53.5551 13.4354C53.7758 13.5262 54.1652 13.5717 54.7234 13.5717L54.7624 13.8053H50.3813L50.4202 13.5717C50.7967 13.5717 51.0887 13.5392 51.2964 13.4743C51.5171 13.4094 51.7508 13.2407 51.9974 12.9681C52.257 12.6825 52.5037 12.2736 52.7373 11.7414C52.971 11.2091 53.2501 10.4627 53.5746 9.50214L55.3076 4.49796C55.9177 2.73255 56.2227 1.66162 56.2227 1.28517C56.2227 0.908719 56.1319 0.668571 55.9501 0.564724C55.7684 0.447895 55.4179 0.38948 54.8987 0.38948L54.8597 0.175293H58.0725L61.519 9.50214C62.1031 11.0469 62.4925 12.0269 62.6873 12.4423C62.8949 12.8577 63.0897 13.1238 63.2714 13.2407C63.5959 13.4613 64.0048 13.5717 64.4981 13.5717L64.537 13.8053H59.6692L59.7081 13.5717ZM56.9821 1.22675L54.2366 9.07376H59.8639L56.9821 1.22675Z" fill="white"/>
<path d="M34.7367 0C36.8266 0 38.4947 0.642559 39.7409 1.92768C41 3.19982 41.6296 4.85489 41.6296 6.89291C41.6296 8.91794 41.0195 10.612 39.7993 11.975C38.592 13.325 36.95 14 34.873 14C32.796 14 31.1215 13.3185 29.8494 11.9555C28.5902 10.5925 27.9606 8.89847 27.9606 6.87344C27.9606 4.83542 28.5642 3.18034 29.7715 1.90821C30.9917 0.636069 32.6468 0 34.7367 0ZM34.8535 13.5522C36.5151 13.5522 37.7742 12.955 38.631 11.7608C39.5007 10.5535 39.9356 8.96987 39.9356 7.00974C39.9356 5.04961 39.4813 3.46593 38.5726 2.25869C37.6639 1.05146 36.3788 0.447844 34.7172 0.447844C33.0686 0.447844 31.8095 1.04497 30.9398 2.23922C30.083 3.43347 29.6546 5.01715 29.6546 6.99026C29.6546 8.95039 30.109 10.5341 31.0176 11.7413C31.9263 12.9485 33.2049 13.5522 34.8535 13.5522Z" fill="white"/>
<path d="M24.9024 0.175293V2.97919L24.6882 2.94024C24.6882 2.0835 24.2274 1.48637 23.3057 1.14887C22.397 0.798381 21.0081 0.623137 19.1388 0.623137V6.75666C19.8917 6.7307 20.4759 6.69175 20.8912 6.63983C21.3196 6.57492 21.6441 6.4516 21.8648 6.26987C22.0855 6.07515 22.2218 5.86746 22.2737 5.64678C22.3256 5.4261 22.3516 5.0886 22.3516 4.63426L22.5853 4.59532V9.32689L22.3516 9.28795C22.3516 8.69082 22.2867 8.26245 22.1569 8.00283C22.0401 7.74321 21.7545 7.5485 21.3001 7.41869C20.8588 7.28888 20.1384 7.21099 19.1388 7.18503V9.40478C19.1388 11.2481 19.2232 12.3255 19.3919 12.637C19.4698 12.8058 19.5542 12.9681 19.6451 13.1238C19.7489 13.2666 19.8982 13.364 20.0929 13.4159C20.5083 13.5198 21.0146 13.5717 21.6117 13.5717L21.6506 13.8053H15.8092L15.8481 13.5717C16.4972 13.5717 16.971 13.4484 17.2696 13.2017C17.5941 12.9291 17.7563 11.6635 17.7563 9.40478V4.57585C17.7563 3.18688 17.7109 2.23927 17.62 1.73301C17.5422 1.21377 17.4253 0.889248 17.2696 0.759438C16.971 0.512799 16.4972 0.38948 15.8481 0.38948L15.8092 0.175293H24.9024Z" fill="white"/>
<path d="M12.306 12.306C10.8132 13.4353 9.02179 14 6.93185 14C4.85489 14 3.18034 13.3315 1.90821 11.9944C0.636069 10.6574 0 8.98934 0 6.99026C0 4.99119 0.610107 3.32963 1.83032 2.00556C3.06351 0.668521 4.71859 0 6.79555 0C7.75614 0 8.71674 0.12981 9.67733 0.389431C10.6379 0.64905 11.3649 0.91516 11.8581 1.18776V3.68011L11.6439 3.64117C11.3194 2.47288 10.7548 1.64859 9.94993 1.16829C9.15809 0.687993 8.10663 0.447844 6.79555 0.447844C5.13398 0.447844 3.86834 1.05146 2.99861 2.25869C2.12888 3.45294 1.69402 5.01715 1.69402 6.95132C1.69402 8.88549 2.15484 10.4497 3.0765 11.644C3.99815 12.8382 5.28975 13.4353 6.95132 13.4353C8.14557 13.4353 9.13862 13.2925 9.93046 13.007C10.7353 12.7084 11.5271 12.28 12.306 11.7218V12.306Z" fill="white"/>
</svg>
