<svg width="601" height="112" viewBox="0 0 601 112" fill="none" xmlns="http://www.w3.org/2000/svg">
<path d="M72.3001 93.0992C73.3001 87.1992 71.2001 81.0992 66.7001 77.0992C63.5001 74.0992 59.2001 72.3992 54.8001 72.3992C52.2001 72.3992 49.7001 71.7992 47.4001 70.5992C44.4001 68.9992 42.0001 66.4992 40.4001 63.4992C41.3001 61.1992 41.7001 58.6992 41.7001 55.9992C41.7001 63.2992 47.5001 69.1992 54.7001 69.1992H55.0001C62.1001 69.0992 67.8001 63.1992 67.8001 55.9992C67.8001 53.3992 68.3001 50.8992 69.1001 48.4992C70.5001 44.7992 72.9001 41.4992 76.1001 39.0992C80.0001 36.0992 84.8001 34.6992 89.6001 34.8992C86.2001 29.0992 81.4001 24.1992 75.6001 20.6992C75.6001 20.9992 75.6001 21.3992 75.6001 21.6992C75.6001 26.2992 74.1001 30.6992 71.4001 34.3992C70.6001 33.6992 69.7001 33.0992 68.8001 32.5992C71.2001 29.4992 72.4001 25.6992 72.4001 21.7992C72.4001 19.4992 72.0001 17.1992 71.1001 14.9992C68.5001 8.59921 62.4001 4.0992 55.2001 3.8992H54.7001H54.2001C49.8001 3.8992 45.5001 4.49922 41.3001 5.69922C23.6001 10.4992 9.7001 24.5992 5.0001 42.4992C2.0001 46.1992 0.200098 50.6992 0.100098 55.4992C0.400098 25.3992 24.4001 0.999219 54.2001 0.699219H54.8001C55.1001 0.699219 55.3001 0.699219 55.6001 0.699219C85.2001 1.19922 109.1 25.3992 109.4 55.4992C109.4 55.6992 109.4 55.8992 109.4 56.0992C109.4 56.2992 109.4 56.4992 109.4 56.6992C109.3 61.4992 107.6 65.9992 104.5 69.6992C101.7 73.0992 97.8001 75.5992 93.5001 76.5992C91.9001 76.9992 90.2001 77.1992 88.6001 77.1992C84.1001 77.1992 79.7001 75.6992 76.1001 72.9992C74.8001 74.7992 73.2001 76.2992 71.5001 77.6992C74.4001 81.5992 75.9001 86.4992 75.6001 91.3992C81.4001 87.8992 86.2001 82.9992 89.6001 77.1992C90.9001 77.0992 92.2001 76.8992 93.5001 76.5992C89.4001 84.5992 82.9001 91.0992 75.0001 95.2992C68.8001 98.5992 61.8001 100.299 54.8001 100.299C51.7001 100.299 48.8001 98.7992 47.0001 96.3992C45.7001 94.5992 45.0001 92.4992 45.0001 90.2992C45.0001 87.2992 46.4001 84.4992 48.5001 82.6992C50.5001 83.1992 52.7001 83.4992 54.9001 83.4992C51.2001 83.4992 48.1001 86.5992 48.1001 90.3992C48.1001 94.1992 51.1001 97.2992 54.9001 97.2992H55.0001C58.7001 97.2992 61.8001 94.1992 61.8001 90.3992C61.8001 86.5992 58.8001 83.4992 55.0001 83.4992C50.0001 83.4992 45.2001 82.0992 40.9001 79.4992C40.0001 78.8992 39.1001 78.2992 38.3001 77.6992C36.5001 76.2992 35.0001 74.6992 33.6001 72.9992C34.4001 72.3992 35.2001 71.6992 36.0001 70.8992C37.9001 73.3992 40.3001 75.5992 43.1001 77.1992C46.7001 79.2992 50.8001 80.3992 55.0001 80.3992C57.4001 80.3992 59.7001 81.2992 61.4001 82.7992C63.5001 84.5992 64.9001 87.3992 64.9001 90.3992C64.9001 92.5992 64.2001 94.6992 62.9001 96.4992C66.2001 95.7992 69.4001 94.7992 72.4001 93.2992L72.3001 93.0992ZM94.6001 48.0992C94.0001 44.6992 92.9001 41.4992 91.4001 38.3992C86.6001 37.5992 81.7001 38.8992 77.9001 41.7992C73.5001 45.1992 70.9001 50.4992 70.9001 56.0992C70.9001 58.7992 70.3001 61.2992 69.1001 63.5992C67.6001 66.5992 65.1001 69.0992 62.2001 70.6992C64.9001 71.6992 67.3001 73.2992 69.4001 75.2992C71.9001 73.3992 74.0001 70.8992 75.5001 68.1992C77.6001 64.4992 78.7001 60.3992 78.7001 56.0992C78.7001 53.5992 79.6001 51.3992 81.1001 49.5992C83.0001 47.3992 85.7001 46.0992 88.6001 46.0992C90.8001 46.0992 92.9001 46.7992 94.6001 48.0992ZM95.3001 55.7992C95.2001 52.1992 92.2001 49.2992 88.5001 49.1992C84.7001 49.1992 81.7001 52.2992 81.7001 55.9992C81.7001 56.0992 81.7001 56.1992 81.7001 56.1992C81.8001 59.8992 84.8001 62.7992 88.5001 62.7992C92.3001 62.7992 95.3001 59.6992 95.3001 55.9992C95.3001 55.9992 95.3001 55.8992 95.3001 55.7992ZM81.1001 62.5992C80.4001 65.2992 79.4001 67.9992 77.9001 70.3992C81.7001 73.3992 86.6001 74.5992 91.4001 73.7992C92.7001 73.5992 94.0001 73.1992 95.3001 72.6992C101.8 69.9992 106.1 63.6992 106.3 56.5992V55.6992C106.3 51.2992 105.7 46.8992 104.5 42.5992C99.8001 24.7992 85.9001 10.6992 68.3001 5.79919C71.7001 8.69919 74.0001 12.5992 75.1001 16.8992V16.9992C84.3001 21.8992 91.4001 29.8992 95.3001 39.5992C97.4001 44.6992 98.5001 50.2992 98.5001 56.1992C98.5001 59.3992 97.0001 62.2992 94.6001 64.0992C92.9001 65.3992 90.8001 66.1992 88.6001 66.1992C85.6001 66.0992 82.9001 64.6992 81.1001 62.5992ZM54.0001 111.399C24.4001 110.899 0.500098 86.5992 0.200098 56.5992V55.9992V55.3992C0.300098 50.5992 2.0001 46.0992 5.1001 42.3992C7.9001 38.9992 11.8001 36.5992 16.1001 35.4992C17.7001 35.0992 19.4001 34.8992 21.0001 34.8992C25.5001 34.8992 29.9001 36.3992 33.5001 39.0992C34.8001 37.2992 36.4001 35.7992 38.1001 34.3992C35.2001 30.4992 33.7001 25.5992 33.9001 20.6992C28.1001 24.1992 23.3001 29.0992 19.9001 34.8992C18.6001 34.9992 17.3001 35.1992 16.0001 35.4992C20.1001 27.4992 26.6001 20.9992 34.5001 16.7992C40.7001 13.4992 47.7001 11.7992 54.7001 11.7992C57.8001 11.7992 60.7001 13.2992 62.5001 15.6992C63.8001 17.3992 64.5001 19.4992 64.5001 21.7992C64.5001 24.8992 63.1001 27.5992 61.0001 29.3992C58.9001 28.8992 56.8001 28.5992 54.6001 28.5992C58.3001 28.5992 61.4001 25.4992 61.4001 21.6992C61.4001 17.8992 58.4001 14.7992 54.6001 14.7992H54.5001C50.8001 14.7992 47.7001 17.8992 47.7001 21.6992C47.7001 25.4992 50.7001 28.5992 54.5001 28.5992C59.5001 28.5992 64.3001 29.9992 68.6001 32.5992C69.5001 33.1992 70.4001 33.7992 71.2001 34.3992C72.9001 35.7992 74.5001 37.3992 75.9001 39.0992C75.1001 39.6992 74.3001 40.3992 73.5001 41.1992C71.6001 38.6992 69.2001 36.4992 66.4001 34.8992C62.8001 32.7992 58.7001 31.6992 54.5001 31.6992C52.2001 31.6992 49.9001 30.7992 48.1001 29.2992C45.9001 27.3992 44.6001 24.5992 44.6001 21.6992C44.6001 19.3992 45.4001 17.2992 46.6001 15.5992C43.3001 16.2992 40.0001 17.3992 37.0001 18.7992C36.0001 24.6992 38.1001 30.7992 42.6001 34.7992C45.8001 37.7992 50.1001 39.4992 54.5001 39.4992C57.1001 39.4992 59.6001 40.0992 61.9001 41.2992C64.9001 42.8992 67.3001 45.3992 68.9001 48.3992C68.0001 50.7992 67.5001 53.2992 67.6001 55.8992C67.6001 48.5992 61.8001 42.6992 54.6001 42.6992H54.5001C47.4001 42.7992 41.7001 48.6992 41.7001 55.8992C41.7001 58.4992 41.2001 60.9992 40.4001 63.3992C39.0001 67.0992 36.6001 70.3992 33.4001 72.7992C29.5001 75.7992 24.7001 77.1992 19.9001 76.9992C23.3001 82.7992 28.1001 87.6992 33.9001 91.1992C33.7001 86.2992 35.1001 81.4992 38.0001 77.5992C38.8001 78.2992 39.7001 78.8992 40.6001 79.3992C38.2001 82.4992 37.0001 86.2992 37.0001 90.1992C37.0001 92.4992 37.4001 94.7992 38.3001 96.9992C40.9001 103.399 47.0001 107.899 54.2001 108.099H55.1001C59.5001 108.099 63.8001 107.499 68.0001 106.299C85.7001 101.499 99.6001 87.3992 104.3 69.4992C107.3 65.7992 109.1 61.2992 109.2 56.4992C108.9 86.5992 84.9001 110.999 55.1001 111.299H54.5001H53.9001C54.2001 111.399 54.0001 111.399 54.0001 111.399ZM41.3001 106.399C37.9001 103.499 35.6001 99.5992 34.5001 95.2992C34.5001 95.2992 34.5001 95.2992 34.5001 95.1992C25.3001 90.2992 18.2001 82.2992 14.3001 72.5992C12.2001 67.2992 11.1001 61.6992 11.1001 55.9992C11.1001 52.7992 12.6001 49.8992 15.0001 48.0992C16.7001 46.7992 18.7001 45.9992 21.0001 45.9992C24.0001 45.9992 26.7001 47.3992 28.5001 49.4992C29.2001 46.6992 30.2001 44.0992 31.7001 41.6992C27.9001 38.6992 23.0001 37.4992 18.2001 38.2992C16.8001 38.4992 15.6001 38.8992 14.3001 39.3992C7.8001 42.0992 3.5001 48.3992 3.3001 55.4992C3.3001 55.6992 3.3001 55.7992 3.3001 55.9992V56.4992C3.3001 60.8992 3.9001 65.2992 5.1001 69.5992C9.9001 87.4992 23.7001 101.599 41.3001 106.399ZM18.2001 73.7992C23.0001 74.5992 27.9001 73.2992 31.7001 70.3992C36.1001 66.9992 38.7001 61.6992 38.7001 56.0992C38.7001 53.3992 39.3001 50.8992 40.5001 48.5992C42.0001 45.5992 44.5001 43.0992 47.4001 41.4992H47.3001C44.6001 40.4992 42.2001 38.8992 40.1001 36.8992C37.6001 38.7992 35.5001 41.2992 34.0001 43.9992C31.9001 47.6992 30.8001 51.7992 30.8001 56.0992C30.8001 58.5992 29.9001 60.7992 28.4001 62.5992C26.5001 64.7992 23.8001 66.0992 20.9001 66.0992C18.6001 66.0992 16.6001 65.2992 14.9001 63.9992C15.7001 67.3992 16.8001 70.6992 18.2001 73.7992ZM14.3001 56.3992C14.5001 59.9992 17.4001 62.9992 21.1001 62.9992C24.9001 62.9992 27.9001 59.8992 27.9001 56.1992C27.9001 56.0992 27.9001 55.9992 27.9001 55.9992C27.8001 52.2992 24.8001 49.3992 21.1001 49.3992C17.3001 49.3992 14.3001 52.4992 14.3001 56.2992C14.3001 56.1992 14.3001 56.2992 14.3001 56.3992ZM153.3 27.0992H168.3L182.3 65.2992H182.5L196.3 27.0992H211.3V80.8992H201.8V37.6992H201.7L185.4 80.8992H178.7L162.6 37.6992H162.5V80.8992H153.4L153.3 27.0992ZM237.5 27.0992H273.1V35.4992H247.1V49.1992H271.8V57.1992H247V72.3992H274.4V80.8992H237.4L237.5 27.0992ZM315.5 50.2992C316.9 50.2992 318.2 50.1992 319.6 49.9992C320.9 49.7992 322.1 49.3992 323.3 48.8992C324.4 48.2992 325.3 47.4992 326 46.4992C326.7 45.4992 327.1 44.0992 327.1 42.4992C327.1 40.9992 326.8 39.7992 326.1 38.8992C325.4 37.9992 324.6 37.1992 323.6 36.6992C322.5 36.0992 321.4 35.6992 320.1 35.5992C318.9 35.3992 317.6 35.2992 316.3 35.2992H307.6V50.3992C307.7 50.2992 315.5 50.2992 315.5 50.2992ZM298.1 27.0992H316.8C319.3 27.0992 321.8 27.3992 324.2 27.8992C326.5 28.3992 328.6 29.2992 330.5 30.4992C332.3 31.6992 333.9 33.3992 334.9 35.2992C336 37.2992 336.6 39.6992 336.6 42.4992C336.6 46.3992 335.5 49.5992 333.3 51.9992C331.1 54.4992 328.1 56.0992 324.3 56.9992L338.6 80.7992H327.1L314.7 57.9992H307.7V80.7992H298.1V27.0992ZM399 39.6992C397.6 37.7992 395.7 36.2992 393.5 35.4992C391.4 34.5992 389.1 34.1992 386.8 34.1992C384.2 34.1992 381.6 34.6992 379.2 35.6992C377 36.6992 375 38.0992 373.3 39.8992C371.6 41.6992 370.3 43.7992 369.5 46.0992C368.6 48.5992 368.1 51.1992 368.2 53.7992C368.2 56.6992 368.6 59.3992 369.5 61.7992C370.4 64.1992 371.6 66.2992 373.2 68.0992C374.8 69.7992 376.7 71.1992 378.9 72.1992C381.1 73.1992 383.6 73.5992 386.4 73.5992C389.3 73.5992 391.8 72.9992 394.1 71.8992C396.2 70.7992 398.1 69.2992 399.5 67.3992L407.2 72.7992C404.9 75.7992 401.9 78.0992 398.5 79.6992C395.1 81.2992 391 82.1992 386.4 82.1992C382.2 82.1992 378.3 81.4992 374.8 80.0992C371.4 78.7992 368.3 76.7992 365.7 74.2992C363.1 71.6992 361.1 68.6992 359.8 65.2992C358.4 61.7992 357.7 57.9992 357.7 53.7992C357.7 49.4992 358.4 45.5992 359.9 42.0992C361.4 38.5992 363.4 35.6992 366 33.2992C368.7 30.7992 371.8 28.8992 375.2 27.6992C380.6 25.6992 386.5 25.1992 392.1 26.1992C394 26.4992 395.8 26.9992 397.5 27.6992C399.2 28.3992 400.8 29.1992 402.4 30.1992C403.9 31.1992 405.2 32.3992 406.3 33.7992C406.3 33.9992 399 39.6992 399 39.6992ZM470.2 61.0992C470.2 64.2992 469.6 67.2992 468.5 69.8992C467.5 72.3992 465.9 74.6992 463.9 76.4992C461.9 78.2992 459.6 79.7992 457.1 80.6992C454.4 81.6992 451.4 82.1992 448.5 82.1992C445.6 82.1992 442.7 81.6992 439.9 80.6992C437.4 79.7992 435 78.2992 433 76.4992C431 74.5992 429.5 72.3992 428.4 69.8992C427.3 67.2992 426.8 64.3992 426.8 61.0992V27.0992H436.4V60.6992C436.4 62.2992 436.6 63.7992 437 65.3992C437.4 66.8992 438.1 68.2992 439 69.4992C439.9 70.6992 441.2 71.6992 442.7 72.4992C444.2 73.2992 446.2 73.5992 448.4 73.5992C450.7 73.5992 452.6 73.1992 454.1 72.4992C455.6 71.7992 456.8 70.7992 457.8 69.4992C458.7 68.2992 459.4 66.8992 459.8 65.3992C460.2 63.8992 460.4 62.2992 460.4 60.6992V27.0992H470C470.2 27.0992 470.2 61.0992 470.2 61.0992ZM513.3 50.2992C514.7 50.2992 516 50.1992 517.4 49.9992C518.8 49.7992 520 49.3992 521.1 48.8992C522.2 48.2992 523.1 47.4992 523.8 46.4992C524.5 45.4992 524.9 44.0992 524.9 42.4992C524.9 40.9992 524.6 39.7992 523.9 38.8992C523.3 37.9992 522.4 37.1992 521.4 36.6992C520.3 36.0992 519.2 35.6992 517.9 35.5992C516.7 35.3992 515.4 35.2992 514.1 35.2992H505.4V50.3992C505.5 50.2992 513.3 50.2992 513.3 50.2992ZM495.9 27.0992H514.6C517.1 27.0992 519.6 27.3992 522 27.8992C524.3 28.3992 526.4 29.2992 528.3 30.4992C530.1 31.6992 531.6 33.2992 532.7 35.2992C533.8 37.2992 534.4 39.6992 534.4 42.4992C534.4 46.3992 533.3 49.5992 531.1 51.9992C528.9 54.4992 525.9 56.0992 522.1 56.9992L536.4 80.7992H524.9L512.5 57.9992H505.5V80.7992H495.9C495.9 80.8992 495.9 27.0992 495.9 27.0992ZM570.5 57.5992L550.3 27.1992H562L575.5 49.7992L589.2 27.1992H600.3L580.1 57.5992V80.8992H570.5V57.5992Z" fill="black"/>
</svg>
