<svg width="95" height="21" viewBox="0 0 95 21" fill="none" xmlns="http://www.w3.org/2000/svg">
<g clip-path="url(#clip0_27_86)">
<path d="M90.6692 20.6556C89.3687 20.6556 88.3455 20.3401 87.5996 19.7089C86.8537 19.0778 86.4807 17.9398 86.4807 16.295V8.49172H82.866V6.42615H85.0176C85.993 6.42615 86.5572 5.94801 86.7102 4.99173L87.1119 2.78271H88.8905V6.42615H94.5709V8.49172H88.8905V16.295C88.8905 17.0983 89.0722 17.6625 89.4356 17.9876C89.8181 18.3127 90.4684 18.4753 91.3864 18.4753H94.5709V20.6556H90.6692Z" fill="black"/>
<path d="M72.8362 21C71.4974 21 70.3116 20.694 69.2788 20.082C68.2652 19.4509 67.4619 18.5806 66.869 17.4714C66.2761 16.3429 65.9797 15.0328 65.9797 13.541C65.9797 12.0492 66.2666 10.7487 66.8403 9.6394C67.4332 8.51099 68.2461 7.64077 69.2788 7.02875C70.3116 6.3976 71.5166 6.08203 72.8936 6.08203C74.2706 6.08203 75.4469 6.3976 76.4223 7.02875C77.3977 7.64077 78.1436 8.45361 78.66 9.46727C79.1764 10.4809 79.4346 11.5711 79.4346 12.7378C79.4346 12.9481 79.425 13.1585 79.4059 13.3689C79.4059 13.5793 79.4059 13.8184 79.4059 14.0861H68.3608C68.4182 15.138 68.6573 16.0178 69.078 16.7255C69.5179 17.414 70.063 17.9304 70.7133 18.2746C71.3827 18.6189 72.0903 18.791 72.8362 18.791C73.8881 18.791 74.7105 18.5711 75.3034 18.1312C75.8963 17.6913 76.3458 17.0793 76.6518 16.2951H79.0329C78.7078 17.6148 78.0288 18.7337 76.9961 19.6517C75.9633 20.5506 74.5767 21 72.8362 21ZM72.8362 8.23367C71.7269 8.23367 70.7515 8.56837 69.91 9.23776C69.0876 9.90716 68.5808 10.8443 68.3895 12.0492H77.0534C76.9769 10.8634 76.5466 9.93585 75.7625 9.26645C74.9974 8.57793 74.022 8.23367 72.8362 8.23367Z" fill="black"/>
<path d="M49.7532 20.6557V18.5901H54.6016V2.78278C54.6016 2.30464 54.3625 2.06557 53.8843 2.06557H50.2696V0H54.4581C55.2805 0 55.9117 0.219945 56.3516 0.659835C56.7914 1.09973 57.0114 1.73087 57.0114 2.55327V18.5901H61.8597V20.6557H49.7532Z" fill="black"/>
<path d="M33.2685 20.6557V18.5901H38.1169V2.78278C38.1169 2.30464 37.8778 2.06557 37.3997 2.06557H33.7849V0H37.9734C38.7958 0 39.427 0.219945 39.8669 0.659835C40.3068 1.09973 40.5267 1.73087 40.5267 2.55327V18.5901H45.3751V20.6557H33.2685Z" fill="black"/>
<path d="M23.0666 3.90163C22.4929 3.90163 22.0147 3.71038 21.6322 3.32786C21.2497 2.94535 21.0584 2.48634 21.0584 1.95082C21.0584 1.39617 21.2497 0.937157 21.6322 0.57377C22.0147 0.191257 22.4929 0 23.0666 0C23.6213 0 24.0899 0.191257 24.4724 0.57377C24.874 0.937157 25.0748 1.39617 25.0748 1.95082C25.0748 2.48634 24.874 2.94535 24.4724 3.32786C24.0899 3.71038 23.6213 3.90163 23.0666 3.90163ZM17.5011 20.6557V18.5901H22.0338V9.20901C22.0338 8.73086 21.7948 8.49179 21.3166 8.49179H17.9888V6.42622H21.8904C23.5926 6.42622 24.4437 7.27731 24.4437 8.9795V18.5901H28.9765V20.6557H17.5011Z" fill="black"/>
<path d="M0.5 20.6557V0.57373H6.66803C8.2172 0.57373 9.48906 0.831927 10.4836 1.34832C11.4973 1.86471 12.2527 2.57236 12.75 3.47127C13.2473 4.35105 13.4959 5.35515 13.4959 6.48356C13.4959 7.80323 13.1516 8.9699 12.4631 9.98356C11.7937 10.9781 10.7609 11.6762 9.36474 12.0778L13.7254 20.6557H10.8565L6.81147 12.4221H6.66803H2.90983V20.6557H0.5ZM2.90983 10.2131H6.58196C8.11201 10.2131 9.23086 9.8688 9.93851 9.18028C10.6653 8.47263 11.0287 7.57372 11.0287 6.48356C11.0287 5.33602 10.6749 4.42755 9.9672 3.75815C9.27868 3.08876 8.1407 2.75406 6.55327 2.75406H2.90983V10.2131Z" fill="black"/>
</g>
<defs>
<clipPath id="clip0_27_86">
<rect width="94.0709" height="20.9999" fill="white" transform="translate(0.5)"/>
</clipPath>
</defs>
</svg>
