<svg width="149" height="83" viewBox="0 0 149 83" fill="none" xmlns="http://www.w3.org/2000/svg">
<g clip-path="url(#clip0_27_83)">
<path d="M24.6857 27.5092C25.6045 27.7613 26.1857 28.3661 26.6374 29.19C28.953 33.4099 31.301 37.6129 33.6366 41.8229C34.2332 42.8973 34.8483 43.9617 35.4172 45.0507C36.1557 46.4663 36.2027 47.9387 35.6292 49.4197C34.8992 51.3056 34.1415 53.1816 33.3992 55.0637C33.3105 55.2889 33.2088 55.5002 32.9351 55.5186C32.6515 55.5379 32.5143 55.3427 32.3925 55.119C30.5571 51.7529 28.7179 48.3876 26.8787 45.0238C24.5292 40.727 22.1789 36.431 19.8294 32.1349C19.1465 30.8869 18.4643 29.638 17.7805 28.3899C17.7497 28.3338 17.7089 28.2831 17.6726 28.2301C17.6726 27.9903 17.5786 27.656 17.6988 27.5361C17.8191 27.4162 18.1544 27.51 18.3957 27.51C20.4931 27.5092 22.5898 27.5092 24.6857 27.5092Z" fill="black"/>
<path d="M40.8269 27.5093C41.2501 27.643 41.6756 27.7652 42.014 28.0818C42.5336 28.5675 42.7263 29.1854 42.7841 29.8671C42.8673 30.8347 42.5798 31.7277 42.2414 32.6115C41.5253 34.482 40.7298 36.3203 39.9536 38.1671C39.932 38.2178 39.9066 38.2678 39.885 38.3185C39.7963 38.5268 39.6599 38.6881 39.4186 38.6989C39.1851 38.7089 39.0494 38.5537 38.9453 38.3677C38.3425 37.2871 37.739 36.2074 37.1393 35.1253C35.899 32.8889 34.661 30.651 33.4215 28.4138C33.1864 27.9896 33.2203 27.8113 33.5903 27.5093C36.003 27.5093 38.415 27.5093 40.8269 27.5093Z" fill="black"/>
<path d="M114.174 50.8445C113.872 51.1388 113.627 51.374 113.348 51.5707C112.21 52.3754 110.932 52.6536 109.558 52.5775C107.075 52.4399 105.285 51.1988 104.061 49.1038C103.475 48.1001 103.204 46.9911 103.144 45.8283C103.071 44.3828 103.273 42.9887 103.961 41.6999C105.01 39.7363 106.596 38.4475 108.827 38.0686C110.785 37.7366 112.544 38.1877 114.005 39.588C114.043 39.6241 114.071 39.681 114.145 39.6671C114.201 39.5657 114.172 39.4543 114.172 39.3474C114.175 36.7998 114.174 34.2514 114.174 31.7037C114.174 31.2672 114.175 31.2665 114.624 31.2665C115.45 31.2665 116.275 31.2657 117.1 31.2665C117.464 31.2672 117.475 31.2772 117.475 31.64C117.475 34.7417 117.475 37.8434 117.475 40.9452C117.475 44.5826 117.475 48.2192 117.475 51.8566C117.475 52.2931 117.475 52.2939 117.028 52.2939C116.184 52.2939 115.34 52.287 114.496 52.2977C114.257 52.3008 114.16 52.2263 114.171 51.9811C114.185 51.633 114.174 51.2825 114.174 50.8445ZM106.503 45.4779C106.485 46.1972 106.683 47.0587 107.2 47.8288C108.035 49.0746 109.237 49.5664 110.708 49.4942C112.131 49.4242 113.194 48.7725 113.867 47.5222C114.371 46.5876 114.478 45.5793 114.337 44.5395C114.145 43.1132 113.462 41.998 112.117 41.4147C110.756 40.8238 109.39 40.9098 108.153 41.7721C106.944 42.6136 106.499 43.8509 106.503 45.4779Z" fill="black"/>
<path d="M79.9513 46.5217C78.3195 46.5217 76.6876 46.5209 75.055 46.5224C74.7351 46.5224 74.7305 46.5309 74.8284 46.8306C75.3333 48.3807 76.6121 49.3629 78.2701 49.5028C79.5258 49.6088 80.6852 49.3706 81.7158 48.6243C81.8877 48.4998 82.0518 48.36 82.1952 48.2047C82.3247 48.0641 82.411 48.081 82.5336 48.2063C83.1033 48.7873 83.6744 49.3683 84.2564 49.937C84.4229 50.0999 84.4083 50.2075 84.2564 50.3696C83.3445 51.3426 82.2368 51.992 80.9488 52.3125C78.6694 52.8789 76.4818 52.6706 74.5046 51.3341C72.6862 50.1053 71.6548 48.3661 71.4159 46.1828C71.1661 43.901 71.7682 41.879 73.3599 40.1968C74.5909 38.8957 76.121 38.1763 77.914 38.0111C80.0492 37.8144 81.9223 38.3838 83.437 39.9255C84.5224 41.0306 85.1121 42.387 85.3148 43.9156C85.4158 44.6818 85.3726 45.4419 85.257 46.2027C85.2215 46.4371 85.1228 46.5278 84.8762 46.5263C83.2343 46.5171 81.5932 46.5217 79.9513 46.5217ZM78.4243 43.8357C79.5644 43.8357 80.7052 43.8349 81.8453 43.8365C82.0125 43.8365 82.152 43.8288 82.0896 43.5967C81.8668 42.769 81.4598 42.0681 80.736 41.5678C79.9691 41.0383 79.1073 40.9522 78.2123 40.9883C76.6444 41.0506 75.2955 42.0727 74.823 43.5513C74.7544 43.7665 74.7813 43.8434 75.0319 43.8411C76.1619 43.8296 77.2935 43.8357 78.4243 43.8357Z" fill="black"/>
<path d="M91.1608 39.8076C91.7636 39.1259 92.428 38.6802 93.185 38.3743C95.8875 37.2822 98.8044 38.3889 100.17 41.0211C100.581 41.8126 100.795 42.6488 100.792 43.548C100.782 46.3362 100.788 49.1251 100.788 51.9133C100.788 52.2937 100.787 52.2945 100.402 52.2945C99.5675 52.2952 98.7327 52.2952 97.8979 52.2945C97.5271 52.2937 97.5248 52.2929 97.5248 51.9279C97.524 49.361 97.5325 46.7942 97.5209 44.2273C97.5148 42.9416 96.9852 41.9202 95.8004 41.3469C94.2318 40.5876 91.7451 41.1033 91.2463 43.4811C91.1839 43.7785 91.16 44.0829 91.1608 44.3887C91.1616 46.891 91.1616 49.3933 91.1616 51.8956C91.1616 52.2937 91.1608 52.2945 90.7677 52.2952C89.9236 52.296 89.0795 52.2883 88.2355 52.2999C87.9903 52.3029 87.8932 52.2368 87.8932 51.974C87.9002 47.5051 87.8994 43.0361 87.894 38.5672C87.894 38.3213 87.9826 38.2467 88.2193 38.249C89.0911 38.2583 89.9629 38.2598 90.8347 38.2483C91.0906 38.2452 91.1777 38.3351 91.1654 38.5872C91.1477 38.963 91.1608 39.3396 91.1608 39.8076Z" fill="black"/>
<path d="M63.6128 47.0788C63.9396 46.3211 64.2587 45.5848 64.5763 44.8486C65.4905 42.729 66.4063 40.6094 67.3166 38.4876C67.3883 38.32 67.4893 38.2486 67.6743 38.2493C68.6478 38.2547 69.6222 38.2501 70.5957 38.2524C70.8786 38.2532 70.8979 38.2839 70.7815 38.5375C69.9328 40.3935 69.0826 42.2487 68.2331 44.1047C67.0299 46.733 65.825 49.3598 64.6279 51.9912C64.5254 52.2164 64.399 52.3124 64.1454 52.3001C63.7199 52.2794 63.2921 52.2817 62.8658 52.2994C62.6338 52.3086 62.5197 52.2195 62.4264 52.0143C60.7514 48.343 59.0695 44.6741 57.389 41.0052C57.016 40.1906 56.6421 39.3767 56.2706 38.5613C56.148 38.2924 56.1688 38.2539 56.4586 38.2532C57.4692 38.2501 58.4805 38.2562 59.4911 38.2486C59.7031 38.247 59.8025 38.3385 59.8811 38.5229C61.0636 41.2911 62.2515 44.0578 63.4393 46.8237C63.4732 46.9051 63.4833 47.0043 63.6128 47.0788Z" fill="black"/>
<path d="M124.265 39.5029C124.477 39.3154 124.661 39.1486 124.85 38.9865C125.866 38.1165 127.072 37.8944 128.361 37.992C129.494 38.0781 130.435 38.5661 131.213 39.3869C131.369 39.5521 131.367 39.6543 131.205 39.8157C130.607 40.409 130.025 41.0161 129.437 41.6186C129.343 41.7147 129.259 41.81 129.116 41.6755C128.342 40.9493 127.407 40.9201 126.457 41.1437C125.11 41.4611 124.3 42.5216 124.28 43.9957C124.253 46.1091 124.269 48.2225 124.267 50.3359C124.266 50.8716 124.253 51.4073 124.272 51.9414C124.282 52.2257 124.177 52.3049 123.901 52.2995C123.049 52.2841 122.195 52.2949 121.343 52.2934C120.973 52.2934 120.967 52.288 120.967 51.9252C120.966 50.4574 120.966 48.9903 120.966 47.5224C120.966 44.569 120.966 41.6156 120.966 38.6622C120.966 38.2518 120.967 38.251 121.387 38.2502C122.24 38.2495 123.093 38.2556 123.946 38.2464C124.186 38.2441 124.281 38.3263 124.27 38.5676C124.254 38.8804 124.265 39.1917 124.265 39.5029Z" fill="black"/>
</g>
<defs>
<clipPath id="clip0_27_83">
<rect width="148" height="83" fill="white" transform="translate(0.5)"/>
</clipPath>
</defs>
</svg>
