<svg width="67" height="27" viewBox="0 0 67 27" fill="none" xmlns="http://www.w3.org/2000/svg">
<g clip-path="url(#clip0_34_124)">
<path fill-rule="evenodd" clip-rule="evenodd" d="M10.6591 0.270175C2.08401 2.24988 -2.43705 11.5339 1.35011 19.386C2.94864 22.7005 5.71927 25.1263 9.33874 26.3808C10.8044 26.8889 11.0559 26.9152 14.5369 26.9248L18.1949 26.9349V23.1675V19.4001L15.1145 19.3035C12.2341 19.2131 11.963 19.172 10.9402 18.6679C8.87803 17.6517 7.80913 15.8936 7.80258 13.5076C7.79931 12.3078 7.89095 11.8698 8.33569 10.9608C9.34837 8.89147 11.1003 7.81883 13.478 7.81227C14.6736 7.80898 15.1101 7.90095 16.0159 8.34723C17.2552 8.95794 18.1595 9.89398 18.7521 11.1793C19.136 12.012 19.1625 12.4525 19.2538 19.4967L19.35 26.9349H23.1043H26.8585V19.1103C26.8585 12.229 26.8175 11.137 26.5187 10.0518C25.2831 5.56285 22.0465 2.14362 17.6173 0.64807C15.7217 0.00780961 12.5429 -0.164716 10.6591 0.270175ZM38.5752 0.282733C33.2132 1.46337 29.0275 5.83004 28.1163 11.1938C27.9796 11.9981 27.9234 15.0321 27.9588 19.6899L28.0137 26.9349H31.7679H35.5222L35.6184 19.4967L35.7147 12.0586L36.2518 10.9608C37.1652 9.09452 38.8652 7.95021 40.9874 7.77324C41.6298 7.71972 42.4199 7.79314 42.9363 7.95427C43.8668 8.24484 44.282 8.20697 44.282 7.83159C44.282 7.32637 46.1027 4.65385 47.2282 3.50664C48.6535 2.05417 48.6166 1.8857 46.695 1.07987C44.145 0.0105145 41.1481 -0.283726 38.5752 0.282733ZM54.7473 0.270175C48.1737 1.78775 43.723 7.66196 44.1459 14.2622C44.5119 19.9724 48.0201 24.55 53.4175 26.3605C57.2378 27.6418 61.9518 26.9588 65.1529 24.6602C67.0091 23.3273 67.0624 23.5338 64.096 20.5587L61.4872 17.9426L60.2659 18.5748C59.2016 19.1256 58.8566 19.2069 57.5834 19.2069C56.3742 19.2069 55.9339 19.114 55.0284 18.6679C50.12 16.2491 51.0839 8.99619 56.4644 7.86385C57.8716 7.56768 59.3945 7.8596 60.7046 8.67683C61.2164 8.99599 61.7387 9.2572 61.8655 9.2572C62.2021 9.2572 67 4.37777 67 4.03562C67 3.87623 66.5453 3.39188 65.9892 2.95931C63.4677 0.996796 61.1707 0.158893 58.0476 0.0624866C56.6835 0.0203693 55.5089 0.0943638 54.7473 0.270175Z" fill="black"/>
</g>
<defs>
<clipPath id="clip0_34_124">
<rect width="67" height="27" fill="white"/>
</clipPath>
</defs>
</svg>
