<svg width="125" height="29" viewBox="0 0 125 29" fill="none" xmlns="http://www.w3.org/2000/svg">
<g clip-path="url(#clip0_34_125)">
<path d="M30.3785 8.80711C30.3785 11.2851 30.3755 13.7631 30.3792 16.2411C30.3815 17.7599 30.0357 19.2014 29.426 20.5829C28.748 22.1189 27.7827 23.4561 26.5685 24.6119C25.733 25.4069 24.8082 26.0856 23.8107 26.6639C22.043 27.6899 20.1387 28.3221 18.1227 28.6281C17.375 28.7414 16.622 28.7631 15.8667 28.7789C14.1282 28.8156 12.4317 28.5771 10.7712 28.0686C8.89846 27.4949 7.18771 26.6136 5.66371 25.3791C4.40221 24.3576 3.33646 23.1651 2.51896 21.7574C1.64896 20.2581 1.12771 18.6531 0.98596 16.9199C0.93721 16.3296 0.92371 15.7409 0.92371 15.1506C0.92296 10.4406 0.922961 5.73061 0.924461 1.02061C0.924461 0.824112 0.92596 0.626111 0.94471 0.431111C0.96046 0.269861 1.05721 0.19936 1.21696 0.22186C1.39546 0.24736 1.57246 0.284862 1.74871 0.322362C4.47871 0.902112 7.17496 1.61611 9.85171 2.40286C11.678 2.93986 13.4847 3.54061 15.2772 4.18036C15.539 4.27411 15.7745 4.29061 16.037 4.19236C16.6055 3.97936 17.1792 3.78136 17.7552 3.58861C21.1647 2.44711 24.6222 1.47211 28.1225 0.650112C28.6497 0.526362 29.1792 0.415361 29.7087 0.300611C29.837 0.272861 29.9667 0.24886 30.0965 0.23386C30.2675 0.21436 30.3545 0.275862 30.3695 0.437112C30.3845 0.599862 30.3852 0.764861 30.3852 0.928361C30.386 3.55411 30.386 6.17986 30.386 8.80561C30.383 8.80711 30.3807 8.80711 30.3785 8.80711ZM15.7445 25.3784C16.2485 25.4001 16.8207 25.3251 17.3885 25.2524C18.449 25.1166 19.487 24.8744 20.4822 24.4709C22.244 23.7561 23.789 22.7414 25.0085 21.2586C26.24 19.7609 26.8985 18.0501 26.972 16.1144C26.9757 16.0169 26.963 15.9179 26.9517 15.8204C26.891 15.3201 26.696 14.8746 26.4117 14.4621C25.9805 13.8344 25.4457 13.3041 24.8667 12.8159C23.7432 11.8694 22.4855 11.1269 21.194 10.4421C19.5245 9.55711 17.7897 8.81686 16.0317 8.12686C15.7647 8.02186 15.5322 8.02861 15.2765 8.13961C14.78 8.35486 14.2752 8.55136 13.775 8.75911C11.8325 9.56536 9.93946 10.4714 8.15896 11.5986C7.10071 12.2684 6.11221 13.0236 5.29921 13.9859C4.69846 14.6969 4.29646 15.4844 4.38721 16.4541C4.48471 17.4914 4.71121 18.4911 5.17321 19.4346C6.06796 21.2631 7.43896 22.6394 9.18046 23.6556C11.1822 24.8249 13.3647 25.3416 15.7445 25.3784ZM26.9877 7.32286C26.9877 6.58561 26.9892 5.84836 26.987 5.11036C26.9862 4.97986 26.9802 4.84786 26.9607 4.71961C26.9435 4.60936 26.8587 4.55011 26.75 4.55386C26.6532 4.55686 26.555 4.57561 26.4605 4.59961C26.1432 4.68061 25.8275 4.76836 25.5102 4.85161C24.0995 5.21986 22.7015 5.63386 21.3057 6.05611C21.134 6.10786 20.9652 6.17386 20.798 6.23911C20.7335 6.26386 20.729 6.36361 20.7897 6.39961C20.888 6.45811 20.9862 6.51811 21.0912 6.56311C21.7842 6.86161 22.4472 7.21936 23.111 7.57711C24.2817 8.20711 25.4075 8.90611 26.4672 9.71011C26.5715 9.78886 26.681 9.86086 26.7927 9.92836C26.8685 9.97411 26.963 9.92086 26.9712 9.82861C26.9825 9.69811 26.9885 9.56761 26.9885 9.43636C26.9885 8.73211 26.9877 8.02711 26.9877 7.32286ZM10.6377 6.27436C10.4412 6.15961 10.2207 6.10711 10.0062 6.04336C9.06421 5.76586 8.12221 5.48686 7.17646 5.22136C6.40396 5.00461 5.62846 4.79986 4.85146 4.60111C4.46371 4.50211 4.39396 4.56586 4.37896 4.97236C4.37671 5.03761 4.37746 5.10361 4.37746 5.16886C4.37746 6.59311 4.37671 8.01811 4.37821 9.44236C4.37821 9.58861 4.35496 9.73861 4.41571 9.87886C4.43596 9.92611 4.48396 9.95911 4.53496 9.93436C4.60696 9.89911 4.67671 9.85486 4.73971 9.80536C5.50321 9.20986 6.31396 8.68636 7.14571 8.19361C8.17471 7.58386 9.23896 7.03936 10.3145 6.51886C10.4255 6.46486 10.5717 6.45136 10.6377 6.27436Z" fill="black"/>
<path d="M41.2759 15.6883C41.2759 13.5875 41.2752 11.4868 41.2767 9.38603C41.2767 9.22253 41.2782 9.05753 41.2962 8.89478C41.3134 8.73653 41.3907 8.66903 41.5542 8.64803C41.6517 8.63603 41.7507 8.63453 41.8489 8.63453C42.8007 8.63378 43.7524 8.63378 44.7049 8.63453C44.7867 8.63453 44.8692 8.63453 44.9509 8.64353C45.1632 8.66678 45.2292 8.73503 45.2509 8.96003C45.2607 9.05753 45.2584 9.15653 45.2592 9.25478C45.2607 9.41903 45.2577 9.58328 45.2614 9.74678C45.2629 9.82553 45.2374 9.92528 45.3147 9.97253C45.4047 10.028 45.4579 9.93128 45.5194 9.88403C45.5584 9.85403 45.5922 9.81804 45.6297 9.78579C46.6594 8.91429 47.8587 8.48604 49.1974 8.43879C49.7217 8.42004 50.2444 8.42304 50.7672 8.51829C52.0062 8.74404 53.0607 9.28853 53.8842 10.2538C53.9374 10.316 53.9899 10.3798 54.0462 10.439C54.1759 10.5763 54.2374 10.5785 54.3679 10.4375C55.3789 9.34779 56.6314 8.70578 58.0932 8.50328C59.3254 8.33228 60.5517 8.38403 61.7254 8.86178C63.0747 9.41078 64.0137 10.367 64.5289 11.7313C64.7862 12.4115 64.9174 13.1195 64.9527 13.8463C65.0869 16.6018 64.9917 19.3588 65.0164 22.115C65.0217 22.6813 64.9632 22.7315 64.3939 22.7338C63.4092 22.7383 62.4244 22.7353 61.4397 22.7345C61.3414 22.7345 61.2424 22.7338 61.1449 22.7225C60.9064 22.6948 60.8262 22.619 60.8052 22.3828C60.7902 22.22 60.7932 22.055 60.7932 21.8908C60.7924 19.6918 60.7917 17.4928 60.7932 15.293C60.7932 14.8325 60.7797 14.3743 60.6649 13.9243C60.5877 13.6198 60.4774 13.3295 60.3019 13.0678C59.7342 12.2203 58.8964 11.9938 57.9409 12.053C57.7459 12.065 57.5494 12.1063 57.3597 12.1565C56.3937 12.4115 55.7592 13.0273 55.4479 13.9693C55.2717 14.5018 55.2027 15.0553 55.2034 15.6178C55.2057 17.7185 55.2042 19.8193 55.2034 21.92C55.2034 22.0843 55.2064 22.2485 55.1944 22.412C55.1787 22.6213 55.1014 22.6963 54.8862 22.7225C54.7887 22.7345 54.6897 22.7345 54.5914 22.7345C53.6232 22.7353 52.6549 22.7353 51.6867 22.7353C51.6372 22.7353 51.5884 22.736 51.5389 22.733C51.1047 22.7113 51.0424 22.6468 51.0304 22.1975C51.0267 22.0663 51.0289 21.935 51.0289 21.8038C51.0289 19.6213 51.0259 17.438 51.0304 15.2555C51.0312 14.7763 50.9757 14.3068 50.8587 13.8433C50.7897 13.5695 50.6757 13.3168 50.5339 13.0753C50.3104 12.6935 49.9969 12.4048 49.5807 12.2593C48.4857 11.8775 47.4477 11.9585 46.5192 12.7093C46.0849 13.0603 45.8127 13.526 45.6664 14.0615C45.5232 14.5858 45.4497 15.1198 45.4504 15.6658C45.4549 17.7665 45.4527 19.8673 45.4512 21.968C45.4512 22.1315 45.4459 22.2958 45.4324 22.4593C45.4219 22.5875 45.3424 22.6723 45.2179 22.6963C45.1062 22.718 44.9907 22.7315 44.8767 22.7323C43.8754 22.7353 42.8742 22.7338 41.8737 22.7338C41.8084 22.7338 41.7424 22.733 41.6772 22.727C41.3787 22.6963 41.3022 22.6228 41.2834 22.3333C41.2737 22.1863 41.2774 22.0378 41.2774 21.89C41.2759 19.8245 41.2759 17.756 41.2759 15.6883Z" fill="black"/>
<path d="M106.929 17.7591C107.063 17.7178 107.06 17.6016 107.091 17.5153C107.443 16.5613 107.792 15.6051 108.14 14.6496C108.813 12.7993 109.482 10.9476 110.156 9.09808C110.318 8.65183 110.337 8.63908 110.838 8.63608C111.445 8.63233 112.052 8.63458 112.659 8.63458C112.922 8.63458 113.185 8.64733 113.447 8.63308C113.742 8.61658 113.898 8.75533 113.987 9.02458C114.141 9.49183 114.315 9.95308 114.477 10.4173C115.248 12.6163 116.016 14.8153 116.787 17.0136C116.863 17.2296 116.954 17.4411 117.042 17.6526C117.07 17.7186 117.168 17.7163 117.198 17.6511C117.245 17.5468 117.289 17.4411 117.328 17.3331C117.875 15.8211 118.421 14.3083 118.966 12.7963C119.412 11.5618 119.856 10.3266 120.3 9.09133C120.323 9.02983 120.345 8.96833 120.369 8.90683C120.436 8.73808 120.553 8.63983 120.741 8.63983C120.823 8.63983 120.906 8.63458 120.987 8.63458C121.841 8.63383 122.694 8.63383 123.547 8.63458C123.662 8.63458 123.777 8.63683 123.891 8.64958C124.029 8.66533 124.098 8.75608 124.071 8.88658C124.047 8.99833 124.012 9.10858 123.973 9.21583C122.72 12.6703 121.464 16.1248 120.211 19.5793C119.904 20.4276 119.599 21.2773 119.293 22.1263C119.259 22.2186 119.224 22.3108 119.192 22.4038C119.119 22.6168 118.967 22.7181 118.747 22.7263C118.632 22.7301 118.518 22.7353 118.403 22.7353C117.516 22.7361 116.631 22.7361 115.744 22.7353C115.662 22.7353 115.58 22.7301 115.498 22.7323C115.211 22.7421 115.05 22.6011 114.957 22.3318C114.687 21.5571 114.401 20.7883 114.123 20.0166C113.504 18.3036 112.888 16.5898 112.263 14.8791C112.2 14.7058 112.19 14.4906 111.988 14.3901C111.822 14.5026 111.815 14.6983 111.754 14.8603C110.897 17.1321 110.046 19.4068 109.194 21.6801C109.107 21.9103 109.011 22.1376 108.933 22.3708C108.848 22.6258 108.675 22.7361 108.414 22.7308C108.332 22.7293 108.249 22.7338 108.168 22.7338C107.265 22.7338 106.362 22.7338 105.46 22.7338C105.394 22.7338 105.329 22.7293 105.264 22.7316C104.961 22.7436 104.776 22.6123 104.679 22.3168C104.521 21.8338 104.34 21.3583 104.167 20.8798C103.343 18.5961 102.518 16.3123 101.694 14.0278C101.104 12.3921 100.515 10.7556 99.9275 9.11908C99.779 8.70583 99.827 8.63608 100.28 8.63383C101.265 8.62933 102.249 8.63233 103.234 8.63233C103.284 8.63233 103.332 8.63683 103.382 8.63458C103.614 8.62483 103.749 8.74408 103.818 8.95558C103.843 9.03358 103.872 9.11008 103.899 9.18808C104.481 10.8621 105.061 12.5361 105.645 14.2093C106.023 15.2938 106.406 16.3761 106.788 17.4598C106.824 17.5678 106.845 17.6818 106.929 17.7591Z" fill="black"/>
<path d="M77.0442 16.8585C75.5015 16.8585 73.9595 16.8608 72.4167 16.857C71.8475 16.8555 71.7792 16.8765 72.0372 17.4765C72.341 18.1823 72.8607 18.69 73.532 19.053C74.1837 19.4055 74.8947 19.5398 75.6192 19.5488C76.478 19.5593 77.321 19.4385 78.0935 19.0148C78.353 18.8723 78.602 18.7155 78.8322 18.5288C78.9215 18.4568 79.0092 18.3825 79.1037 18.318C79.1945 18.2558 79.2935 18.2625 79.376 18.3345C79.463 18.4095 79.544 18.4905 79.622 18.5745C80.1027 19.0913 80.5857 19.605 81.0597 20.1278C81.5015 20.6145 81.4985 20.6205 81.0372 21.063C80.4245 21.651 79.7082 22.0748 78.9162 22.3733C78.1587 22.659 77.3727 22.7963 76.5672 22.8795C75.3245 23.0078 74.1095 22.8848 72.9132 22.557C71.591 22.1948 70.4187 21.5558 69.4715 20.5478C68.4252 19.4348 67.841 18.1103 67.6565 16.593C67.556 15.7673 67.5852 14.9535 67.754 14.1473C68.204 11.9985 69.383 10.3785 71.3232 9.33376C72.4415 8.73151 73.64 8.44201 74.9135 8.42851C75.8907 8.41801 76.847 8.51176 77.771 8.84026C80.1965 9.70126 81.68 11.406 82.2575 13.9005C82.364 14.3618 82.3985 14.8403 82.4502 15.3128C82.4975 15.7403 82.4127 16.1633 82.364 16.5863C82.343 16.767 82.259 16.8323 82.064 16.848C81.917 16.86 81.7692 16.857 81.6215 16.8578C80.0967 16.8593 78.5705 16.8585 77.0442 16.8585ZM75.1227 14.3708V14.37C76.1052 14.37 77.0877 14.3738 78.0702 14.3685C78.422 14.3663 78.47 14.2928 78.383 13.9523C78.3627 13.8735 78.338 13.7948 78.3072 13.719C77.8145 12.504 76.9182 11.802 75.617 11.6453C75.2787 11.6048 74.9262 11.607 74.588 11.6498C73.4105 11.7998 72.557 12.4208 72.0387 13.4895C71.954 13.6643 71.897 13.8563 71.8497 14.0453C71.7912 14.277 71.852 14.3528 72.0785 14.3663C72.209 14.3738 72.3402 14.3708 72.4715 14.3708C73.3542 14.3708 74.2385 14.3708 75.1227 14.3708Z" fill="black"/>
<path d="M91.7937 8.43448C92.5527 8.40073 93.3792 8.51623 94.1885 8.74873C96.0867 9.29473 97.568 10.3927 98.5505 12.1185C99.086 13.059 99.377 14.0805 99.4152 15.1665C99.443 15.9547 99.4212 16.7385 99.221 17.5117C98.7117 19.4775 97.5702 20.9505 95.7995 21.9322C94.7652 22.506 93.65 22.7917 92.4687 22.8877C91.2387 22.9882 90.0447 22.8555 88.8792 22.4745C87.722 22.0957 86.6982 21.4845 85.8657 20.5875C84.6935 19.3237 84.0552 17.8297 84.0042 16.0995C83.9817 15.3442 83.99 14.592 84.1812 13.851C84.6882 11.8867 85.8222 10.4092 87.5952 9.42673C88.874 8.71723 90.2517 8.40748 91.7937 8.43448ZM91.637 11.8822C91.511 11.8927 91.4292 11.9047 91.3475 11.9055C90.0537 11.9175 88.6872 12.9967 88.3625 14.4135C88.2072 15.0915 88.1757 15.7635 88.2627 16.4587C88.4315 17.8012 89.492 19.197 91.1202 19.4272C92.0615 19.56 92.9555 19.4272 93.7385 18.8512C94.5125 18.2827 94.985 17.5192 95.1312 16.563C95.1507 16.4332 95.162 16.3027 95.1792 16.173C95.279 15.426 95.1822 14.7 94.913 14.0025C94.3722 12.5955 93.0867 11.8035 91.637 11.8822Z" fill="black"/>
</g>
<defs>
<clipPath id="clip0_34_125">
<rect width="123.154" height="28.5648" fill="white" transform="translate(0.923218 0.217773)"/>
</clipPath>
</defs>
</svg>
