<svg width="123" height="17" viewBox="0 0 123 17" fill="none" xmlns="http://www.w3.org/2000/svg">
<g clip-path="url(#clip0_34_121)">
<path d="M2.788 4.71445C2.788 2.83666 1.8245 1.29847 0 0H4.223C5.699 1.11868 6.6215 2.81669 6.6215 4.71445C6.6215 6.61222 5.7195 8.31023 4.223 9.42891C5.5965 9.98825 6.3755 11.3467 6.3755 13.2844V17H2.5625V13.2844C2.5625 11.4266 1.6605 10.1281 0.0205013 9.42891C1.8245 8.11046 2.788 6.57227 2.788 4.71445ZM11.07 4.71445C11.07 2.83666 10.1065 1.29847 8.282 0H12.505C13.981 1.11868 14.9035 2.81669 14.9035 4.71445C14.9035 6.61222 14.0015 8.31023 12.505 9.42891C13.8785 9.98825 14.6575 11.3467 14.6575 13.2844V17H10.8445V13.2844C10.8445 11.4266 9.9425 10.1281 8.3025 9.42891C10.1065 8.11046 11.07 6.57227 11.07 4.71445ZM19.352 4.71445C19.352 2.83666 18.3885 1.29847 16.564 0H20.787C22.263 1.11868 23.1855 2.81669 23.1855 4.71445C23.1855 6.61222 22.2835 8.31023 20.787 9.42891C22.1605 9.98825 22.9395 11.3467 22.9395 13.2844V17H19.1265V13.2844C19.1265 11.4266 18.2245 10.1281 16.5845 9.42891C18.3885 8.11046 19.352 6.57227 19.352 4.71445ZM34.8295 13.9036H31.9185V3.09636H39.032C42.4555 3.09636 44.1365 4.3349 44.1365 6.35252C44.1365 7.7309 43.3165 8.76968 41.7585 9.28907C43.3575 9.52879 44.075 10.3478 44.075 11.8061V13.9036H41.164V11.926C41.164 10.6874 40.5285 10.188 38.8475 10.188H34.8295V13.9036ZM38.8885 4.65452H34.8295V8.60987H38.8475C40.303 8.60987 41.2255 7.83079 41.2255 6.59224C41.2255 5.37368 40.385 4.65452 38.8885 4.65452ZM49.1795 3.07638H46.289V13.8837H49.1795V3.07638ZM58.0765 10.3678H54.5505V13.8837H51.66V3.07638H58.1585C61.582 3.07638 63.386 4.47474 63.386 6.69213C63.3655 9.0094 61.541 10.3678 58.0765 10.3678ZM58.015 4.65452H54.5505V8.78966H57.9945C59.491 8.78966 60.4135 8.05053 60.4135 6.7121C60.393 5.39366 59.4705 4.65452 58.015 4.65452ZM71.5245 10.3678H67.9985V13.8837H65.0875V3.07638H71.586C75.0095 3.07638 76.8135 4.47474 76.8135 6.69213C76.8135 9.0094 74.9685 10.3678 71.5245 10.3678ZM71.463 4.65452H67.9985V8.78966H71.4425C72.939 8.78966 73.8615 8.05053 73.8615 6.7121C73.841 5.39366 72.9185 4.65452 71.463 4.65452ZM81.426 3.07638V12.2855H88.6625V13.8837H78.5355V3.07638H81.426ZM93.3775 3.07638H90.487V13.8837H93.3775V3.07638ZM97.744 6.69213V13.8837H95.8375V3.07638H98.0105L105.903 10.2679V3.07638H107.81V13.8837H105.636L97.744 6.69213ZM117.26 4.35488C114.513 4.35488 112.709 6.05288 112.709 8.58989C112.709 11.087 114.431 12.6451 117.096 12.6451H117.28C118.182 12.6451 119.207 12.4653 120.15 12.1657V9.24912H115.476V7.69095H123V12.765C121.442 13.5441 119.084 14.1633 117.178 14.1633H116.932C112.545 14.1633 109.695 11.906 109.695 8.62985C109.695 5.39366 112.607 2.79671 117.096 2.79671H117.342C119.208 2.79671 121.339 3.37603 122.918 4.25499L122.098 5.57344C120.683 4.81433 118.982 4.3349 117.485 4.3349H117.26V4.35488Z" fill="black"/>
</g>
<defs>
<clipPath id="clip0_34_121">
<rect width="123" height="17" fill="white"/>
</clipPath>
</defs>
</svg>
