<svg width="110" height="29" viewBox="0 0 110 29" fill="none" xmlns="http://www.w3.org/2000/svg">
<g clip-path="url(#clip0_27_84)">
<g clip-path="url(#clip1_27_84)">
<mask id="mask0_27_84" style="mask-type:luminance" maskUnits="userSpaceOnUse" x="0" y="0" width="110" height="29">
<path d="M0.5 0H109.5V29H0.5V0Z" fill="white"/>
</mask>
<g mask="url(#mask0_27_84)">
<path d="M8.0428 9.802C5.44133 9.802 4.16676 12.0872 4.16676 15.1395V22.7882H0.5V6.64825H4.10136V10.8359H4.16385C4.93412 8.26065 6.46739 6.18135 8.83196 6.18135C10.4946 6.18135 11.1965 6.7599 11.1965 6.7599L9.53973 10.0848C9.53973 10.0819 9.01363 9.802 8.0428 9.802ZM52.3637 12.0176V22.7868H48.7914V13.3284C48.7914 10.614 47.9383 9.1756 45.7568 9.1756C43.4998 9.1756 42.4069 10.9939 42.4069 14.4826V22.7853H38.868V13.3284C38.868 10.7184 38.0251 9.1756 35.8654 9.1756C33.402 9.1756 32.453 11.3303 32.453 14.4826V22.7853H28.8516V6.6468H32.453V10.3022H32.485C33.0459 7.77345 34.5778 6.21325 37.1618 6.21325C39.7255 6.21325 41.3953 7.5864 42.029 10.0224C42.6321 7.67775 44.2381 6.2118 46.7058 6.2118C50.1502 6.2118 52.3637 8.3665 52.3637 12.0176ZM18.4022 6.1799C15.0886 6.1799 12.9187 7.73285 11.9305 10.5372L14.981 11.6435C15.5362 9.9528 16.6959 8.99 18.4661 8.99C20.4572 8.99 21.6271 9.86435 21.6271 11.2056C21.6271 12.5788 20.697 12.8659 18.5925 13.2052C16.2527 13.5807 10.6908 13.704 10.6908 18.386C10.6908 21.1294 12.9899 23.1928 16.4431 23.1928C19.0387 23.1928 20.8074 22.1343 21.6257 20.1637H21.6576V22.7882H25.2285V12.8586C25.2285 8.51585 23.0368 6.1799 18.4022 6.1799ZM21.7201 15.1902C21.7201 18.5745 20.0415 20.7481 17.3601 20.7481C15.4621 20.7481 14.3256 19.6867 14.3256 18.1555C14.3256 16.7199 15.494 15.7224 17.738 15.312C20.0343 14.8915 21.1897 14.3724 21.7201 13.1269V15.1902ZM65.0672 6.2118C62.335 6.2118 60.5314 7.70965 59.7582 9.96005V6.64825H55.965V29H59.7262V19.4764H59.7582C60.5953 21.9139 62.3379 23.2551 65.0672 23.2551C69.3967 23.2551 72.4938 19.6968 72.4938 14.6697C72.4938 9.6773 69.3967 6.2118 65.0672 6.2118ZM64.1342 20.2594C61.136 20.2594 59.4734 18.0888 59.4734 14.7175C59.4734 11.3462 61.3336 9.1756 64.1342 9.1756C66.9333 9.1756 68.7965 11.4521 68.7965 14.7175C68.7965 17.9844 66.9362 20.2594 64.1342 20.2594ZM109.75 22.7143V22.8158L95.0713 22.8201V22.7143C97.1888 21.5209 98.6494 20.3073 99.9647 19.0371H105.992L109.75 22.7143ZM106.114 3.6395L102.393 0H102.284C102.284 0 102.347 6.786 96.1003 12.9572C89.9875 18.9979 82.7994 19.011 82.7994 19.011V19.1168L86.5897 22.8216C86.5897 22.8216 93.6732 22.8912 99.9313 16.7678C106.166 10.6633 106.114 3.6395 106.114 3.6395Z" fill="black"/>
</g>
</g>
</g>
<defs>
<clipPath id="clip0_27_84">
<rect width="109" height="29" fill="white" transform="translate(0.5)"/>
</clipPath>
<clipPath id="clip1_27_84">
<rect width="109" height="29" fill="white" transform="translate(0.5)"/>
</clipPath>
</defs>
</svg>
