<svg width="122" height="32" viewBox="0 0 122 32" fill="none" xmlns="http://www.w3.org/2000/svg">
<g clip-path="url(#clip0_34_120)">
<path fill-rule="evenodd" clip-rule="evenodd" d="M30.513 0.046343C29.3141 0.209813 28.1964 0.687854 27.2856 1.42677C26.84 1.78822 26.4567 2.22151 25.7789 3.13001C25.4215 3.60894 25.0272 4.12207 24.9027 4.27034C24.3159 4.96882 23.8447 5.24478 23.122 5.31333C22.9077 5.33366 19.0883 5.34382 11.6504 5.34382L0.5 5.34385V18.6719V32L5.21547 31.991L9.93094 31.982L10.2852 31.9162C11.6489 31.6632 12.8137 31.0557 13.7923 30.087C14.1285 29.7543 14.2543 29.5982 14.9596 28.6391C16.0439 27.1646 16.3318 26.9015 17.0595 26.72C17.2344 26.6764 18.2587 26.6714 28.6674 26.6635L40.0834 26.6548V13.3279V0.00112168L35.4417 0.00416201C31.7641 0.00658247 30.7404 0.0153197 30.513 0.046343ZM50.0014 13.3279V26.6557L56.7241 26.6555C61.0304 26.6553 63.5422 26.6446 63.7124 26.6256C65.2834 26.4502 66.6056 25.9483 67.7643 25.0878C68.2014 24.7633 68.9409 24.0035 69.2615 23.5496C69.9864 22.5236 70.4185 21.4074 70.5788 20.147C70.6277 19.7623 70.6278 18.6332 70.5789 18.2727C70.2873 16.1226 69.0979 14.5197 66.952 13.3847C66.8018 13.3053 66.6789 13.2321 66.6789 13.2221C66.6789 13.2121 66.762 13.1534 66.8634 13.0916C67.9362 12.4379 68.8011 11.4989 69.3372 10.4062C69.7868 9.48962 69.9849 8.60326 69.9849 7.5083C69.9849 5.46003 69.1809 3.50958 67.7416 2.06651C66.6661 0.988198 65.43 0.34893 63.9043 0.08203L63.5353 0.0174745L56.7683 0.00873727L50.0014 0V13.3279ZM62.9228 4.20776C64.0681 4.42505 64.959 5.26185 65.362 6.49894C65.5208 6.98642 65.5679 7.3149 65.5494 7.80395C65.5303 8.30442 65.4445 8.66897 65.2477 9.08476C64.7383 10.1611 63.6548 10.9378 62.4761 11.0718C62.3 11.0918 60.8809 11.0993 58.3697 11.0937L54.5324 11.0851L54.5249 7.6241L54.5174 4.16313H58.6024C62.1246 4.16313 62.7199 4.16927 62.9228 4.20776ZM81.7035 6.63047C81.6467 6.63717 81.474 6.65639 81.3198 6.67315C79.8873 6.82883 78.4977 7.51193 77.3481 8.62564C77.1667 8.8013 77.0099 8.94502 76.9995 8.94502C76.9891 8.94502 76.9807 8.50668 76.9807 7.97093V6.99684H74.8701H72.7596V16.8263V26.6557H75.0318H77.304L77.3137 20.5824C77.3227 14.9586 77.3272 14.4906 77.3746 14.2582C77.5188 13.5511 77.7904 12.8935 78.1243 12.4429C78.8256 11.4965 79.8818 10.9985 81.187 10.9987C81.5695 10.9988 82.0531 11.0406 82.2086 11.087C82.2431 11.0973 82.3933 10.9197 82.7528 10.4438C83.0259 10.0821 83.3508 9.65345 83.4746 9.4911C83.5985 9.32875 84.05 8.73102 84.478 8.1628C84.906 7.59458 85.2877 7.09124 85.3264 7.04425C85.365 6.99729 85.3859 6.94864 85.3728 6.93613C85.3442 6.90885 84.2233 6.74615 83.6402 6.6846C83.2393 6.64231 81.9165 6.60532 81.7035 6.63047ZM92.2561 6.63351C91.3037 6.69638 90.2328 6.9276 89.3999 7.2502C88.6537 7.53923 87.6958 8.09606 87.12 8.57549C86.0125 9.49765 85.1646 10.6604 84.5853 12.0512C84.1863 13.0092 83.9506 13.9386 83.7785 15.2323C83.7024 15.8046 83.7026 17.8977 83.7789 18.4645C83.9134 19.4649 84.0647 20.157 84.3118 20.9035C85.5978 24.7882 88.8158 27.0393 93.0826 27.0389C94.868 27.0387 96.5084 26.6512 97.8645 25.9092C98.5231 25.5489 99.0194 25.1864 99.5285 24.6938C100.513 23.7413 101.165 22.6219 101.58 21.1728L101.625 21.0178H99.1953H96.7658L96.6011 21.2318C95.8743 22.1761 94.7372 22.7527 93.4 22.8549C92.0843 22.9555 90.8492 22.5957 89.9224 21.842C89.0213 21.1092 88.4721 20.0338 88.4122 18.8851L88.3957 18.5678H95.1708H101.946L101.961 18.5014C102.185 17.5216 102.233 17.0904 102.204 16.3245C102.109 13.7977 101.452 11.7449 100.196 10.0519C98.538 7.8165 95.9267 6.58652 92.907 6.61843C92.6302 6.62135 92.3373 6.62814 92.2561 6.63351ZM33.1467 13.3875V19.7781L28.3574 19.7784C25.3168 19.7786 23.4389 19.7898 23.214 19.8091C21.7383 19.936 20.3805 20.5403 19.3588 21.5247C19.034 21.8377 18.858 22.0525 18.1298 23.025C17.7713 23.5039 17.3694 24.0181 17.2368 24.1675C16.844 24.6102 16.4489 24.8756 16.0116 24.9905C15.8165 25.0417 15.5698 25.0452 11.5913 25.0539L7.3775 25.0631L7.38497 18.6644L7.39241 12.2658L12.4842 12.2495C17.5222 12.2335 17.579 12.2327 17.8565 12.1711C18.8216 11.9573 19.4834 11.6919 20.1789 11.24C20.8901 10.7779 21.368 10.3139 22.0678 9.40621C22.822 8.42805 23.0577 8.14214 23.3763 7.81906C23.8435 7.34533 24.2755 7.09679 24.7489 7.02928C24.8463 7.01541 26.7757 7.00242 29.0364 7.00045L33.1467 6.99684V13.3875ZM101.427 7.16657C101.496 7.25991 102.115 8.09343 102.804 9.01881C103.492 9.9442 104.257 10.9715 104.502 11.3018C104.748 11.6321 105.208 12.2502 105.524 12.6754C105.841 13.1007 106.307 13.7271 106.56 14.0674C106.813 14.4078 107.317 15.0847 107.679 15.5718C108.042 16.0588 108.411 16.5556 108.5 16.6756C108.626 16.8459 108.656 16.9044 108.632 16.9413C108.616 16.9673 108.286 17.407 107.9 17.9184C107.514 18.4298 106.916 19.2202 106.573 19.6747C106.23 20.1293 105.663 20.8798 105.313 21.3425C104.963 21.8052 104.396 22.5557 104.053 23.0103C103.709 23.4648 102.994 24.4123 102.462 25.1157C101.93 25.8191 101.452 26.4533 101.399 26.5252L101.303 26.6557H103.973H106.643L107.182 25.9399C107.478 25.5462 107.961 24.9053 108.255 24.5157C108.549 24.126 109.12 23.3689 109.524 22.8332C111.344 20.4193 111.318 20.4524 111.355 20.4926C111.374 20.5136 111.755 21.0156 112.2 21.6082C112.646 22.2007 113.416 23.2235 113.912 23.881C114.408 24.5385 115.08 25.4285 115.404 25.8587L115.994 26.641L118.685 26.6485C120.165 26.6526 121.375 26.6485 121.375 26.6392C121.375 26.6299 121.12 26.2878 120.809 25.8789C120.497 25.4701 119.818 24.5777 119.299 23.8958C118.362 22.6653 117.959 22.1357 117.611 21.682C117.512 21.5521 117.087 20.9942 116.667 20.4422C115.805 19.3086 114.388 17.4472 114.151 17.1375C114.065 17.0245 114 16.9172 114.007 16.899C114.014 16.8809 114.317 16.4686 114.681 15.9828C115.045 15.497 115.794 14.4951 116.347 13.7564C116.899 13.0177 117.986 11.5633 118.763 10.5242C121.009 7.52144 121.375 7.02825 121.375 7.01208C121.375 7.00369 120.203 6.99687 118.771 6.9969L116.166 6.99699L115.206 8.27196C114.679 8.97318 113.598 10.4111 112.805 11.4672C112.012 12.5233 111.356 13.3856 111.347 13.3833C111.331 13.3793 110.957 12.8827 108.019 8.96698L106.543 7L103.922 6.99844L101.301 6.99684L101.427 7.16657ZM93.9366 10.8613C94.5957 10.9778 95.2732 11.2532 95.7983 11.6182C95.9119 11.6972 96.1253 11.8818 96.2725 12.0285C96.9216 12.6754 97.2828 13.4892 97.3376 14.428L97.357 14.76H92.895H88.4331L88.4494 14.5903C88.5368 13.682 88.7482 13.1042 89.2188 12.4872C89.9411 11.54 91.0283 10.975 92.4775 10.7937C92.7362 10.7613 93.5964 10.8012 93.9366 10.8613ZM62.9702 15.306C64.0709 15.4719 65.1151 16.2201 65.6688 17.2395C65.9383 17.7356 66.0551 18.1516 66.079 18.7007C66.1035 19.2647 66.0132 19.6892 65.7563 20.2173C65.3064 21.1418 64.357 21.9501 63.3097 22.3003C62.707 22.5017 62.9069 22.4937 58.4986 22.4937H54.5176V18.8778V15.2618L58.5984 15.262C62.0575 15.2622 62.7236 15.2689 62.9702 15.306Z" fill="black"/>
</g>
<defs>
<clipPath id="clip0_34_120">
<rect width="120.875" height="32" fill="white" transform="translate(0.5)"/>
</clipPath>
</defs>
</svg>
