<svg width="3062" height="702" viewBox="0 0 3062 702" fill="none" xmlns="http://www.w3.org/2000/svg">
<g clip-path="url(#clip0_68_78)">
<mask id="mask0_68_78" style="mask-type:luminance" maskUnits="userSpaceOnUse" x="-6" y="0" width="3070" height="702">
<path d="M3063.46 0H-5.84668V702H3063.46V0Z" fill="white"/>
</mask>
<g mask="url(#mask0_68_78)">
<path d="M1610.66 424.125C1533.19 424.125 1471.81 484.087 1471.81 563.062C1471.81 642.038 1534.65 702 1610.66 702C1688.12 702 1749.5 640.575 1749.5 563.062C1749.5 484.087 1688.12 424.125 1610.66 424.125ZM1610.66 479.7C1657.43 479.7 1692.5 514.8 1692.5 563.062C1692.5 611.325 1655.96 646.425 1610.66 646.425C1563.88 646.425 1528.81 611.325 1528.81 563.062C1527.35 514.8 1563.88 479.7 1610.66 479.7ZM2766.76 612.788V485.55H2832.53V429.975H2766.76V355.387L2709.76 372.938V429.975H2661.53V485.55H2709.76V612.788C2709.76 681.525 2744.84 706.388 2832.53 694.688V643.5C2788.68 646.425 2766.76 646.425 2766.76 612.788ZM3062 642.038H2931.92L3062 485.55V432.9H2860.3V485.55H2990.38L2860.3 642.038V696.15H3062V642.038ZM1910.28 427.05V488.475C1872.28 485.55 1828.43 503.1 1828.43 563.062V696.15H1771.43V431.438H1828.43V475.312C1844.51 440.212 1876.66 427.05 1910.28 427.05ZM2047.67 424.125C1970.2 424.125 1908.82 484.087 1908.82 563.062C1908.82 642.038 1971.66 702 2047.67 702C2125.13 702 2186.52 640.575 2186.52 563.062C2187.98 484.087 2126.59 424.125 2047.67 424.125ZM2047.67 479.7C2094.44 479.7 2129.51 514.8 2129.51 563.062C2129.51 611.325 2092.97 646.425 2047.67 646.425C2000.9 646.425 1965.82 611.325 1965.82 563.062C1965.82 514.8 2002.36 479.7 2047.67 479.7ZM2563.6 431.438L2480.29 696.15H2424.75L2369.21 517.725L2313.67 696.15H2258.13L2174.82 431.438H2234.75L2285.9 614.25L2341.44 431.438H2395.52L2451.06 614.25L2502.22 431.438H2563.6ZM2639.6 431.438H2582.6V696.15H2639.6V431.438ZM784.865 17.55V127.237C762.942 111.15 732.248 97.9875 703.017 97.9875C621.169 97.9875 555.398 169.65 564.167 253.012C571.475 317.362 624.092 370.012 688.401 377.325C724.941 380.25 758.557 370.012 784.865 351V371.475H843.328V0L784.865 17.55ZM783.404 238.387C783.404 289.575 736.633 329.063 684.016 317.363C653.323 311.513 628.477 286.65 621.169 254.475C610.938 201.825 651.862 155.025 703.017 155.025C746.864 155.025 783.404 191.587 783.404 238.387ZM220.697 106.763V124.312C198.774 108.225 169.542 97.9875 140.311 97.9875C58.4623 97.9875 -7.30854 169.65 1.46091 253.012C8.76879 317.362 61.3855 370.012 125.695 377.325C162.234 380.25 195.85 370.012 222.159 351V371.475H280.622V106.763H220.697ZM220.697 238.387C220.697 289.575 173.927 329.063 121.31 317.363C90.617 311.513 65.7702 286.65 58.4623 254.475C48.2313 201.825 89.1554 155.025 140.311 155.025C184.158 155.025 220.697 191.587 220.697 238.387ZM441.395 99.45C404.856 99.45 377.086 112.613 359.547 140.4V105.3H302.545V370.012H359.547V228.15C359.547 174.038 388.778 152.1 426.779 152.1C463.319 152.1 485.242 172.575 485.242 213.525V370.012H542.244V209.138C543.705 140.4 501.32 99.45 441.395 99.45ZM1503.96 292.5C1490.81 311.512 1467.42 324.675 1435.27 324.675C1392.88 324.675 1359.26 304.2 1350.49 261.787H1560.96C1562.42 254.475 1562.42 245.7 1562.42 238.387C1562.42 162.337 1508.34 99.45 1429.42 99.45C1346.11 99.45 1290.57 160.875 1290.57 238.387C1290.57 317.362 1347.57 377.325 1433.8 377.325C1484.96 377.325 1525.88 355.387 1549.27 320.287L1503.96 292.5ZM1430.88 152.1C1465.96 152.1 1498.11 171.113 1506.88 216.45H1350.49C1359.26 176.963 1388.5 152.1 1430.88 152.1ZM2157.28 326.137C2189.44 326.137 2212.82 311.513 2225.98 293.963L2272.75 321.75C2247.9 358.312 2208.44 378.787 2157.28 378.787C2069.59 378.787 2014.05 318.825 2014.05 239.85C2014.05 160.875 2071.05 100.913 2152.9 100.913C2231.82 100.913 2285.9 163.8 2285.9 239.85C2285.9 242.775 2285.9 247.163 2284.44 251.55C2284.44 255.938 2282.98 258.862 2282.98 263.25H2072.51C2081.28 304.2 2114.9 326.137 2157.28 326.137ZM2227.44 216.45C2220.13 171.113 2186.52 152.1 2151.44 152.1C2109.05 152.1 2079.82 176.963 2071.05 216.45H2227.44ZM2639.6 371.475H2582.6V320.287H2639.6V371.475ZM2313.67 371.475H2370.67V229.612C2370.67 175.5 2399.91 153.562 2437.91 153.562C2472.98 153.562 2496.37 175.5 2496.37 214.987V370.012H2553.37V207.675C2553.37 138.938 2510.99 99.45 2452.52 99.45C2415.98 99.45 2388.21 112.613 2370.67 140.4V106.763H2313.67V371.475ZM1638.42 179.888C1638.42 160.875 1655.96 152.1 1676.43 152.1C1696.89 152.1 1714.43 160.875 1724.66 178.425L1774.35 153.562C1755.35 119.925 1720.27 99.45 1676.43 99.45C1622.35 99.45 1579.96 130.163 1579.96 179.888C1579.96 235.463 1626.73 248.625 1667.66 260.325H1669.12C1670.58 260.325 1672.04 261.787 1673.5 261.787C1701.27 270.562 1721.73 276.413 1721.73 295.425C1721.73 315.9 1702.73 324.675 1676.43 324.675C1651.58 324.675 1631.12 314.438 1620.89 295.425L1569.73 320.287C1587.27 355.387 1625.27 377.325 1674.96 377.325C1731.97 377.325 1778.74 348.075 1778.74 295.425C1778.74 238.388 1729.04 223.763 1689.58 213.525C1663.27 206.213 1638.42 198.9 1638.42 179.888ZM1859.12 179.888C1859.12 160.875 1876.66 152.1 1897.12 152.1C1917.59 152.1 1935.12 160.875 1946.82 179.888L1996.51 155.025C1977.51 121.388 1940.97 100.913 1898.59 100.913C1844.51 100.913 1802.12 131.625 1802.12 181.35C1802.12 236.925 1848.89 250.087 1889.82 261.787H1894.2C1920.51 270.562 1943.89 277.875 1943.89 296.887C1943.89 317.362 1923.43 326.137 1898.59 326.137C1872.28 326.137 1853.28 315.9 1843.05 296.887L1791.89 321.75C1809.43 356.85 1845.97 378.787 1897.12 378.787C1955.59 378.787 2000.9 349.537 2000.9 296.887C2000.9 239.85 1954.13 226.687 1913.2 214.987H1911.74C1908.82 214.987 1907.35 213.525 1904.43 213.525C1879.58 204.75 1859.12 198.9 1859.12 179.888ZM1005.56 163.8V102.375C971.947 102.375 939.792 115.538 923.715 150.638V106.763H866.713V371.475H923.715V238.387C923.715 178.425 967.562 160.875 1005.56 163.8ZM1267.18 320.287V465.075C1284.72 437.287 1312.49 424.125 1349.03 424.125C1407.5 424.125 1449.88 463.613 1449.88 532.35V696.15H1392.88V539.663C1392.88 500.175 1369.5 478.238 1334.42 478.238C1296.42 478.238 1267.18 500.175 1267.18 554.288V696.15H1210.18V367.088C1192.64 374.4 1173.64 378.787 1151.72 378.787C1064.03 378.787 1008.49 318.825 1008.49 239.85C1008.49 160.875 1065.49 100.913 1147.34 100.913C1226.26 100.913 1280.34 163.8 1280.34 239.85C1280.34 242.775 1280.34 247.163 1278.88 251.55C1278.88 255.938 1277.42 258.862 1277.42 263.25H1066.95C1075.72 304.2 1109.33 326.137 1151.72 326.137C1176.57 326.137 1195.57 317.362 1210.18 305.662C1214.57 302.737 1217.49 298.35 1220.41 293.963L1267.18 320.287ZM1221.88 216.45C1213.11 171.113 1180.95 152.1 1145.87 152.1C1103.49 152.1 1074.26 176.963 1066.95 216.45H1221.88Z" fill="#40474F"/>
</g>
</g>
<defs>
<clipPath id="clip0_68_78">
<rect width="3062" height="702" fill="white"/>
</clipPath>
</defs>
</svg>
