<svg width="4231" height="621" viewBox="0 0 4231 621" fill="none" xmlns="http://www.w3.org/2000/svg">
<path d="M875.03 8.38379H1036.32C1159.12 8.38379 1229.64 59.6163 1229.64 162.159C1229.64 214.168 1203.93 257.172 1155.77 286.359C1218.81 326.025 1243.74 359.094 1243.74 433.846C1243.43 551.138 1163.8 605.475 1042.79 605.475H875.03V8.38379ZM989.571 244.752H1029.39C1080.89 244.752 1115.1 214.944 1115.1 174.889C1115.1 131.109 1089.39 103.009 1035.47 103.009H989.571V244.752ZM989.571 511.006H1037.72C1097.49 511.006 1128.97 476.23 1128.97 424.143C1128.97 367.089 1089.15 338.756 1029.39 338.756H989.571V511.006Z" fill="#3D3D3D"/>
<path d="M1287.3 605.475L1435.81 8.38379H1582.61L1726.92 605.475H1617.83L1588.85 479.8H1430.05L1397.63 605.475H1287.3ZM1450.93 378.966H1564.61L1508.82 137.629H1507.19L1450.93 378.966Z" fill="#3D3D3D"/>
<path d="M2034.07 174.501C2014.98 118.3 1990.13 94.3144 1950.23 94.3144C1910.34 94.3144 1887.2 119.077 1887.2 159.597C1887.2 249.72 2142.77 256.163 2142.77 443.084C2142.77 545.626 2072.64 613.237 1951.95 613.237C1859.07 613.237 1786.84 562.781 1756.14 445.412L1868.96 421.504C1882.21 493.462 1923.51 519.078 1957.71 519.078C1997.53 519.078 2028.23 492.608 2028.23 447.974C2028.23 335.573 1772.73 333.943 1772.73 166.971C1772.73 64.584 1834.06 0 1952.73 0C2054.8 0 2117.06 60.3146 2136.93 144.615L2034.07 174.501Z" fill="#3D3D3D"/>
<path d="M2240.64 605.475V8.38379H2355.1V605.475H2240.64Z" fill="#3D3D3D"/>
<path d="M2709.4 174.501C2690.23 118.3 2665.37 94.3144 2625.48 94.3144C2585.59 94.3144 2562.44 119.077 2562.44 159.597C2562.44 249.72 2818.02 256.318 2818.02 443.084C2818.02 545.626 2747.5 613.393 2627.19 613.393C2534.32 613.237 2462.24 562.936 2431.07 445.568L2543.9 421.659C2557.22 493.617 2598.44 519.234 2632.73 519.234C2672.54 519.234 2703.24 492.763 2703.24 448.129C2703.24 335.728 2447.67 334.098 2447.67 167.127C2447.98 64.584 2509.38 0 2628.05 0C2730.05 0 2792.3 60.3146 2812.25 144.615L2709.4 174.501Z" fill="#3D3D3D"/>
<path d="M3276.18 174.501C3257.09 118.3 3232.23 94.3144 3192.34 94.3144C3152.45 94.3144 3129.3 119.077 3129.3 159.597C3129.3 249.72 3384.88 256.318 3384.88 443.084C3384.88 545.626 3314.36 613.393 3193.98 613.393C3101.17 613.393 3028.87 562.936 2998.17 445.568L3111.07 421.659C3124.32 493.617 3165.61 519.234 3199.82 519.234C3239.64 519.234 3269.95 492.763 3269.95 448.129C3269.95 335.728 3014.37 334.098 3014.37 167.127C3014.76 64.584 3076.16 0 3194.68 0C3296.75 0 3359.01 60.3146 3378.88 144.615L3276.18 174.501Z" fill="#3D3D3D"/>
<path d="M3476.12 605.475V8.38379H3789.74V109.296H3590.58V246.46H3742.45V347.372H3590.58V504.563H3798.24V605.475H3476.12Z" fill="#3D3D3D"/>
<path d="M4229.52 8.38329V109.296H4095.89V605.475H3981.66V109.218H3847.79V8.30566L4229.52 8.38329Z" fill="#3D3D3D"/>
<path d="M612.911 258.025V3.57031H357.492V105.337H438.528L102.152 440.444V105.337H255.418V3.57031H0V614.169H612.911V359.791H510.759V512.325H174.383L510.759 177.295V258.025H612.911Z" fill="url(#paint0_linear_68_111)"/>
<defs>
<linearGradient id="paint0_linear_68_111" x1="0" y1="614.169" x2="610.594" y2="1.26231" gradientUnits="userSpaceOnUse">
<stop stop-color="#441FFF"/>
<stop offset="1" stop-color="#EE00FF"/>
</linearGradient>
</defs>
</svg>
