<svg width="1434" height="617" viewBox="0 0 1434 617" fill="none" xmlns="http://www.w3.org/2000/svg">
<g clip-path="url(#clip0_68_84)">
<path d="M1286.3 185.912C1287.11 176.17 1295.23 165.616 1309.83 165.616C1326.06 165.616 1332.56 176.17 1333.37 185.912H1286.3ZM1309.02 142.072C1282.24 142.072 1257.89 163.992 1257.89 197.278C1257.89 232.999 1283.05 253.295 1312.27 253.295C1338.24 253.295 1354.47 237.87 1360.15 220.009L1336.61 212.703C1333.37 222.445 1326.06 228.939 1313.08 228.939C1299.28 228.939 1287.11 219.197 1286.3 205.396H1360.96C1360.96 204.584 1361.77 200.525 1361.77 196.466C1360.96 163.18 1341.48 142.072 1309.02 142.072Z" fill="#015089"/>
<path d="M671.959 375.071C671.959 354.775 686.567 340.162 706.044 340.162C727.144 340.162 739.318 353.151 740.129 375.071H671.959ZM752.302 384.001C752.302 384.001 752.302 380.754 752.302 377.506C752.302 347.468 733.637 328.796 705.233 328.796C681.698 328.796 658.163 348.28 658.163 381.566C658.163 418.099 684.133 435.147 708.479 435.147C727.956 435.147 744.187 424.593 751.491 408.356V407.545L740.941 403.485V404.297C735.26 417.287 723.898 424.593 708.479 424.593C686.567 424.593 671.959 408.356 671.959 384.813L752.302 384.001Z" fill="#015089"/>
<path d="M152.57 0L0 265.472V323.925L185.844 0H152.57Z" fill="#015089"/>
<path d="M589.181 227.315V186.723H602.166C613.528 186.723 618.397 187.535 622.455 189.971C628.136 193.218 631.382 198.901 631.382 207.019C631.382 214.326 628.947 219.197 624.078 223.256C619.209 226.504 614.339 227.315 603.789 227.315H589.181ZM589.181 124.211H599.732C608.659 124.211 615.151 125.023 619.209 127.459C624.889 129.894 628.136 136.389 628.136 144.507C628.136 158.309 619.209 164.803 601.355 164.803H589.181V124.211ZM646.801 243.552C656.54 237.057 662.22 224.88 662.22 211.079C662.22 199.713 658.163 190.782 651.67 184.288C646.801 180.229 642.743 178.605 633.816 176.169C641.932 173.734 645.178 171.298 649.236 167.239C655.728 160.744 658.974 151.814 658.974 141.26C658.974 128.271 654.105 116.905 644.367 109.598C636.251 103.915 624.889 100.668 606.224 100.668H558.343V250.047H613.528C629.759 250.047 638.686 248.423 646.801 243.552Z" fill="#015089"/>
<path d="M1430.75 142.884C1424.26 142.884 1418.58 144.508 1413.71 147.755C1409.65 151.003 1407.22 154.25 1404.78 161.556V146.131H1376.38V250.047H1404.78V199.713C1404.78 189.971 1405.6 185.1 1408.84 180.229C1412.9 174.546 1420.2 170.487 1428.32 170.487C1429.94 170.487 1432.38 170.487 1434 171.299V142.072C1432.38 142.884 1431.57 142.884 1430.75 142.884Z" fill="#015089"/>
<path d="M1062.31 347.468V331.231H1050.14V433.524H1062.31V379.942C1062.31 365.329 1064.75 357.21 1072.05 349.904C1076.92 344.221 1083.41 341.785 1092.34 340.974H1096.4V328.796H1091.53C1083.41 328.796 1076.11 331.231 1070.43 335.291C1067.18 338.538 1065.56 341.785 1062.31 347.468Z" fill="#015089"/>
<path d="M1121.56 188.347C1121.56 173.734 1127.24 166.428 1137.79 166.428C1148.34 166.428 1153.21 173.734 1153.21 188.347V250.047H1181.61V187.535C1181.61 174.546 1187.29 166.428 1197.84 166.428C1208.39 166.428 1214.07 172.922 1214.07 187.535V250.047H1242.48V181.853C1242.48 166.428 1240.85 159.121 1234.36 151.814C1228.68 145.32 1219.75 142.072 1209.2 142.072C1194.59 142.072 1184.86 147.755 1177.55 159.121C1172.68 147.755 1162.94 142.072 1149.15 142.072C1136.16 142.072 1127.24 146.943 1120.74 158.309V146.131H1092.34V250.047H1120.74V188.347H1121.56Z" fill="#015089"/>
<path d="M1028.23 165.616C1044.46 165.616 1050.95 176.17 1051.76 185.912H1004.69C1005.5 176.17 1013.62 165.616 1028.23 165.616ZM1029.85 253.295C1055.82 253.295 1072.05 237.87 1077.73 220.009L1054.2 212.703C1050.95 222.445 1043.65 228.939 1030.66 228.939C1016.87 228.939 1004.69 219.197 1003.88 205.396H1078.54C1078.54 204.584 1079.36 200.525 1079.36 196.466C1079.36 163.18 1059.88 142.072 1027.42 142.072C1000.64 142.072 976.289 163.992 976.289 197.278C976.289 232.999 1001.45 253.295 1029.85 253.295Z" fill="#015089"/>
<path d="M321.372 0L0 556.924V615.376L321.372 57.6408L389.542 175.358L135.528 615.376H169.613L321.372 350.716L389.542 468.433L305.141 615.376H338.414L422.815 468.433L338.414 321.489L422.815 175.358L321.372 0Z" fill="#015089"/>
<path d="M831.022 232.998C822.906 232.998 818.848 228.939 817.225 220.009H789.633C790.444 241.929 805.864 254.106 830.21 254.106C854.556 254.106 870.787 240.305 870.787 220.821C870.787 203.772 861.86 194.842 838.326 187.535C823.718 182.664 823.718 182.664 820.472 180.229C818.848 178.605 817.225 176.169 817.225 173.734C817.225 168.051 822.095 163.992 828.587 163.992C835.891 163.992 841.572 168.863 841.572 174.546V176.169H868.353C867.541 155.061 852.933 142.884 829.399 142.884C805.052 142.884 788.821 155.873 788.821 176.169C788.821 192.406 798.56 202.96 821.283 209.455C836.702 214.326 840.76 216.761 840.76 223.256C842.383 228.939 837.514 232.998 831.022 232.998Z" fill="#015089"/>
<path d="M925.161 232.998C917.046 232.998 912.988 228.939 911.365 220.009H883.772C884.584 241.929 900.003 254.106 924.35 254.106C948.696 254.106 964.927 240.305 964.927 220.821C964.927 203.772 956 194.842 932.465 187.535C917.857 182.664 917.857 182.664 914.611 180.229C912.988 178.605 911.365 176.169 911.365 173.734C911.365 168.051 916.234 163.992 922.727 163.992C930.03 163.992 935.711 168.863 935.711 174.546V176.169H962.492C961.681 155.061 947.073 142.884 923.538 142.884C899.192 142.884 882.961 155.873 882.961 176.169C882.961 192.406 892.699 202.96 915.423 209.455C930.842 214.326 934.9 216.761 934.9 223.256C936.523 228.939 931.654 232.998 925.161 232.998Z" fill="#015089"/>
<path d="M1153.21 517.955C1149.15 521.202 1147.52 523.638 1144.28 529.321V513.084H1132.11V615.376H1144.28V561.794C1144.28 547.181 1146.71 539.063 1154.02 531.756C1158.89 526.073 1165.38 523.638 1174.31 522.826H1178.36V510.648H1173.49C1166.19 510.648 1158.07 513.084 1153.21 517.955Z" fill="#015089"/>
<path d="M924.35 432.712V422.97V422.158H923.539C920.292 422.97 916.235 424.593 910.554 424.593C900.815 424.593 895.946 418.911 895.946 407.545V340.974H922.727V330.42H895.946V306.064H884.584V330.42H869.165V340.974H884.584V407.545C884.584 424.593 894.323 434.336 910.554 434.336C917.046 435.147 921.104 434.336 924.35 432.712Z" fill="#015089"/>
<path d="M895.134 604.01C891.888 604.822 887.83 606.446 882.15 606.446C872.411 606.446 867.542 600.763 867.542 589.397V523.638H894.323V513.084H867.542V488.729H855.369V513.084H839.949V523.638H855.369V590.209C855.369 607.257 865.107 617 881.338 617C887.83 617 891.888 616.188 895.134 614.564V604.822V604.01Z" fill="#015089"/>
<path d="M964.927 510.648C951.131 510.648 938.958 516.331 930.031 526.885V512.272H917.857V614.564H930.031V552.052C930.031 542.31 931.654 537.439 938.146 530.944C943.827 525.262 950.319 521.202 962.492 521.202C963.304 521.202 964.116 521.202 964.116 521.202C976.289 521.202 988.462 528.509 988.462 548.805V615.376H1000.64V548.805C1000.64 537.439 997.389 528.509 990.896 522.014C985.216 514.708 975.477 510.648 964.927 510.648Z" fill="#015089"/>
<path d="M1028.23 330.42H1016.05V392.932C1016.05 403.486 1014.43 409.169 1009.56 414.04C1004.69 419.723 995.766 423.782 986.839 423.782C969.797 423.782 957.623 411.604 957.623 392.932V330.42H945.45V392.932C945.45 418.099 961.681 435.148 986.839 435.148C998.201 435.148 1008.75 431.088 1016.87 422.97C1024.98 415.663 1027.42 407.545 1027.42 392.932V330.42H1028.23Z" fill="#015089"/>
<path d="M843.195 433.523H855.368V366.952C855.368 355.586 852.122 346.656 845.63 340.161C839.138 333.667 829.399 329.607 818.849 329.607C805.053 329.607 792.879 335.29 783.952 345.844V331.231H771.779V433.523H783.952V371.011C783.952 361.269 785.576 356.398 792.068 349.903C797.749 344.221 804.241 340.161 816.414 340.161C817.226 340.161 818.037 340.161 818.037 340.161C830.211 340.161 842.384 347.468 842.384 367.764V433.523H843.195Z" fill="#015089"/>
<path d="M1033.1 556.923C1033.1 536.627 1047.7 522.014 1067.18 522.014C1087.47 522.014 1100.46 535.004 1101.27 556.923H1033.1ZM1066.37 510.648C1042.84 510.648 1019.3 530.133 1019.3 563.418C1019.3 599.951 1045.27 617 1069.62 617C1089.09 617 1105.32 606.446 1112.63 590.209V589.397L1102.08 585.338V586.15C1096.4 599.139 1085.04 606.446 1069.62 606.446C1047.7 606.446 1033.1 590.209 1033.1 566.666H1114.25V565.854C1114.25 565.854 1114.25 562.606 1114.25 559.359C1113.44 530.133 1094.77 510.648 1066.37 510.648Z" fill="#015089"/>
<path d="M610.282 433.524L663.844 286.58L650.048 285.769L604.601 412.416L560.778 286.58L546.981 285.769L598.92 433.524H610.282Z" fill="#015089"/>
<path d="M633.816 530.944C629.759 536.627 624.889 540.687 618.397 542.31C613.528 543.934 607.035 544.746 598.108 544.746H575.385V478.987H594.051C604.601 478.987 611.093 479.798 617.585 481.422C631.382 485.481 640.309 496.847 640.309 511.46C639.497 518.767 637.062 525.262 633.816 530.944ZM637.063 478.987C628.136 471.68 615.151 468.433 598.108 468.433H562.4V615.376H575.385V556.112H600.543C617.585 556.112 628.136 553.676 636.251 547.181C646.801 539.063 652.482 526.885 652.482 512.272C651.67 498.471 645.99 486.293 637.063 478.987Z" fill="#015089"/>
<path d="M1150.77 340.162C1171.06 340.162 1184.04 353.151 1184.86 375.071H1117.5C1117.5 354.775 1132.11 340.162 1150.77 340.162ZM1196.22 407.545L1185.67 403.485V404.297C1179.99 417.287 1168.62 424.593 1153.21 424.593C1131.29 424.593 1116.69 408.356 1116.69 384.813H1197.84V384.001C1197.84 384.001 1197.84 380.754 1197.84 377.506C1197.84 347.468 1179.17 328.796 1150.77 328.796C1127.24 328.796 1103.7 348.28 1103.7 381.566C1103.7 418.099 1129.67 435.147 1154.02 435.147C1172.68 435.147 1188.91 425.405 1196.22 407.545Z" fill="#015089"/>
<path d="M800.183 517.955C796.125 521.202 794.502 523.638 791.256 529.321V513.084H779.083V615.376H791.256V561.794C791.256 547.181 793.691 539.063 800.995 531.756C805.864 526.073 812.356 523.638 821.283 522.826H825.341V510.648H820.472C813.168 510.648 805.052 513.084 800.183 517.955Z" fill="#015089"/>
<path d="M1228.68 557.736C1210.01 552.865 1205.14 548.806 1205.14 539.064C1205.14 529.321 1213.26 522.827 1227.06 522.827C1240.85 522.827 1248.97 529.321 1248.97 540.687V541.499H1261.95V540.687C1261.14 522.827 1248.16 511.461 1227.06 511.461C1206.77 511.461 1192.16 522.827 1192.16 539.875C1192.16 547.182 1195.41 554.489 1201.09 559.36C1205.96 564.231 1212.45 566.666 1224.62 569.914C1242.47 573.973 1249.78 579.656 1249.78 589.398C1249.78 599.952 1240.85 606.446 1227.87 606.446C1213.26 606.446 1203.52 599.14 1202.71 586.962V586.15H1190.54V586.962C1192.97 607.258 1205.14 617.812 1227.87 617.812C1248.97 617.812 1262.76 606.446 1262.76 589.398C1262.76 582.091 1259.52 574.785 1254.65 569.914C1248.97 564.231 1242.47 560.983 1228.68 557.736Z" fill="#015089"/>
<path d="M726.332 165.615C742.563 165.615 749.056 176.169 749.867 185.911H702.798C703.609 176.169 711.725 165.615 726.332 165.615ZM753.113 213.514C749.867 223.256 742.563 229.751 729.579 229.751C715.782 229.751 703.609 220.009 702.798 206.207H777.46C777.46 205.396 778.271 201.336 778.271 197.277C778.271 163.992 758.794 142.884 726.332 142.884C699.551 142.884 675.205 164.804 675.205 198.089C675.205 233.81 700.363 254.106 729.579 254.106C755.548 254.106 771.779 238.681 777.46 220.821L753.113 213.514Z" fill="#015089"/>
<path d="M705.233 605.634C684.944 605.634 670.336 587.773 670.336 565.042C670.336 554.488 673.582 543.122 679.263 535.816C685.756 526.885 693.871 522.826 706.044 522.826C727.956 522.826 743.375 539.063 743.375 562.606C743.375 586.15 726.333 605.634 705.233 605.634ZM742.564 530.133C732.825 517.143 720.652 510.648 705.233 510.648C677.64 510.648 658.163 532.568 658.163 563.418C658.163 594.268 678.452 616.188 706.044 616.188C721.464 616.188 733.637 608.881 743.375 593.456V614.564H754.737V512.272H742.564V530.133Z" fill="#015089"/>
</g>
<defs>
<clipPath id="clip0_68_84">
<rect width="1434" height="617" fill="white"/>
</clipPath>
</defs>
</svg>
