<svg width="1200" height="1200" viewBox="0 0 1200 1200" fill="none" xmlns="http://www.w3.org/2000/svg">
<path fill-rule="evenodd" clip-rule="evenodd" d="M216.696 12.25C215.3 40.362 207.391 69.24 193.483 97C163.389 157.071 108.567 199.681 45 212.409C31.552 215.101 15.379 217 5.894 217H0V435.5V654H53.998H107.996L108.248 925.75L108.5 1197.5L285.75 1197.75L463 1198.01V1155.51V1113.01L328.25 1112.75L193.5 1112.5L193.248 840.75L192.996 569H138.998H85V428.969C85 317.786 85.258 288.869 86.25 288.608C86.938 288.427 91.55 287.514 96.5 286.579C125.943 281.018 160.209 264.092 191.983 239.417C206.314 228.288 230.827 204.009 242.383 189.5C267.706 157.704 286.451 120.472 291.092 92.751L292.39 85.002L744.945 84.751L1197.5 84.5L1197.76 42.25L1198.02 0H707.663H217.304L216.696 12.25ZM900.34 852.91C891.895 855.049 885.978 862.279 886.022 870.407C886.051 875.733 889.022 882.167 892.643 884.746C899.417 889.569 909.658 890.006 917.155 885.793C929.108 879.075 928.443 860.934 916.008 854.504C912.542 852.712 904.395 851.883 900.34 852.91ZM775 933.524V1009.05L792.25 1008.77L809.5 1008.5L809.765 979.75L810.031 951H837.515H865V937V923H837.5H810V904.5V886H839.5H869V872V858H822H775V933.524ZM1141 886.5V901H1133.5H1126V914.5V928H1133.42H1140.84L1141.24 957.75C1141.57 982.918 1141.9 988.214 1143.37 992.133C1145.84 998.711 1151.13 1004.43 1157.78 1007.69C1163.22 1010.36 1164.14 1010.49 1176.5 1010.37C1184.05 1010.29 1191.6 1009.66 1194.5 1008.85L1199.5 1007.47L1199.3 1002.49C1199.18 999.744 1198.8 993.531 1198.45 988.68C1197.89 981.012 1197.59 979.946 1196.15 980.522C1192.63 981.936 1183.48 982.088 1181 980.773C1176.8 978.547 1176.12 974.326 1176.06 950.25L1176 928H1188H1200V914.5V901H1188H1176V886.5V872H1158.5H1141V886.5ZM998.882 900.32C992.683 902.639 988.528 905.737 984.949 910.708L981.5 915.5L981.206 908.25L980.912 901H963.448H945.983L946.241 954.75L946.5 1008.5L963.65 1008.77L980.799 1009.05L981.22 979.773C981.576 955.011 981.914 949.73 983.416 945.5C985.464 939.733 990.086 934.368 994.718 932.381C998.593 930.718 1008.48 930.574 1012.9 932.116C1014.66 932.729 1016.34 932.989 1016.64 932.693C1017.78 931.557 1019.16 901.763 1018.13 900.728C1016.48 899.078 1002.97 898.791 998.882 900.32ZM1056.36 901.001C1036.73 907.407 1027.07 924.416 1032.56 942.907C1033.71 946.757 1035.53 949.591 1039.31 953.428C1045.01 959.201 1050.25 961.699 1067.68 966.949C1079.38 970.473 1084 973.626 1084 978.089C1084 981.445 1081.2 984.661 1077.46 985.599C1076.04 985.957 1071.41 986.042 1067.19 985.789C1061.08 985.424 1057.9 984.587 1051.74 981.724C1047.47 979.741 1042.67 977.192 1041.08 976.059C1039.49 974.927 1037.98 974 1037.73 974C1037.16 974 1026.32 990.994 1025.48 993.201C1024.7 995.233 1030.4 999.937 1038.44 1003.89C1056.01 1012.54 1080.83 1013.21 1096.67 1005.46C1103.56 1002.09 1111.31 993.541 1113.62 986.762C1117.3 975.98 1115.16 963.049 1108.39 955.141C1104.04 950.061 1094.86 945.535 1078.91 940.611C1066.48 936.773 1062 933.86 1062 929.62C1062 926.336 1066.04 923.266 1071.43 922.458C1077.16 921.599 1086.56 924.081 1095.15 928.719C1098.88 930.738 1102.1 932.19 1102.3 931.945C1103.25 930.771 1113 912.64 1113 912.047C1113 910.696 1100.35 903.898 1094 901.837C1084.33 898.696 1064.75 898.262 1056.36 901.001ZM888.241 954.75L888.5 1008.5L905.75 1008.77L923 1009.05V955.024V901H905.491H887.983L888.241 954.75ZM570 1122.44V1198.05L587.75 1197.77L605.5 1197.5L605.765 1168.7L606.031 1139.9L611.254 1140.2L616.477 1140.5L632.161 1169L647.846 1197.5L668.423 1197.77C679.74 1197.92 689 1197.86 689 1197.65C689 1197.43 680.675 1183.71 670.5 1167.16C660.325 1150.61 652 1136.71 652 1136.27C652 1135.83 654.293 1134.38 657.096 1133.05C667.545 1128.09 675.494 1118.34 678.605 1106.65C680.467 1099.66 680.369 1085.63 678.412 1078.93C675.264 1068.17 666.922 1058.47 656.624 1053.61C644.965 1048.1 642.072 1047.75 604.75 1047.27L570 1046.82V1122.44ZM1163.69 1047.64C1163.31 1048.02 1163 1060.36 1163 1075.07V1101.8L1159.75 1098.74C1155.09 1094.36 1145.13 1089.99 1136.91 1088.71C1110.64 1084.65 1086.87 1101.24 1080.55 1128.05C1078.6 1136.3 1078.6 1151.68 1080.54 1159.91C1086.33 1184.48 1105.31 1200 1129.58 1200C1142.91 1200 1155.72 1194.88 1162.48 1186.84L1165 1183.85V1190.95V1198.05L1181.75 1197.77L1198.5 1197.5V1122.5V1047.5L1181.44 1047.23C1172.06 1047.08 1164.07 1047.27 1163.69 1047.64ZM633.5 1076.9C641.54 1080.62 645.758 1088.41 644.385 1096.99C643.487 1102.61 640.281 1107.03 634.961 1109.97C631.026 1112.14 628.998 1112.48 617.75 1112.84L605 1113.24V1094.12V1075L617.25 1075.02C627.034 1075.04 630.305 1075.42 633.5 1076.9ZM739.247 1089.11C716.077 1092.97 698.542 1108.85 693.411 1130.61C691.278 1139.66 691.99 1155.08 694.926 1163.42C703.107 1186.67 724.014 1200 752.287 1200C770.196 1200 784.604 1194.41 796.073 1183.03C806.542 1172.63 811 1161.03 811 1144.18C811 1133.18 809.105 1124.91 804.666 1116.51C793.797 1095.96 766.575 1084.56 739.247 1089.11ZM1012.08 1089.59C1005.11 1091.46 1001.38 1093.81 995.644 1099.95L991 1104.91V1097.46V1090H973.5H956V1144V1198H973.427H990.855L991.177 1165.25C991.481 1134.48 991.627 1132.23 993.598 1127.97C997.408 1119.73 1004.08 1116.08 1013.1 1117.29C1018.71 1118.04 1021.86 1120.44 1024.31 1125.83C1026.3 1130.23 1026.44 1132.48 1026.82 1164.27L1027.21 1198.05L1044.36 1197.77L1061.5 1197.5L1061.79 1164.5C1062.18 1119.38 1060.68 1109.6 1051.84 1099.56C1043.12 1089.65 1026.95 1085.59 1012.08 1089.59ZM828.265 1129.75C828.731 1171.68 828.996 1174.27 833.76 1183.5C838.935 1193.53 849.242 1199.08 863.942 1199.77C871.92 1200.14 874.561 1199.86 879.917 1198.04C886.364 1195.86 893.372 1191.68 896.058 1188.42C897.36 1186.84 897.548 1187.19 898 1192.08L898.5 1197.5L915.25 1197.77L932 1198.05V1144.02V1090H914.549H897.099L896.799 1123.75L896.5 1157.5L894 1161.91C890.566 1167.97 887.157 1170.24 880.679 1170.78C873.108 1171.4 868.761 1169.18 865.794 1163.16C863.56 1158.62 863.491 1157.61 863.17 1124.25L862.84 1090H845.332H827.824L828.265 1129.75ZM761.5 1117.87C770.226 1121.84 776 1132.06 776 1143.52C776 1159.76 766.087 1171 751.772 1171C742.057 1171 735.094 1166.86 730.729 1158.5C727.757 1152.8 727.133 1139.13 729.516 1131.95C731.577 1125.75 737.829 1118.97 743.01 1117.32C748.501 1115.57 757.008 1115.82 761.5 1117.87ZM1150.72 1118.55C1159.5 1122.92 1164.1 1131.27 1164.19 1143C1164.26 1151.47 1162.69 1156.94 1158.72 1162.12C1154.37 1167.8 1149.07 1170.37 1140.74 1170.84C1134.99 1171.17 1133.18 1170.83 1128.59 1168.59C1119.22 1164 1114.99 1156.08 1115.01 1143.12C1115.02 1134.17 1117.64 1127.51 1123.25 1122.18C1130.21 1115.56 1141.69 1114.05 1150.72 1118.55Z" fill="#241E20"/>
</svg>
