<svg width="1718" height="232" viewBox="0 0 1718 232" fill="none" xmlns="http://www.w3.org/2000/svg">
<path d="M1670.18 74.7587H1638.97V59.2919H1718V74.7587H1686.79V155.243H1669.61V74.7587H1670.18ZM1548.78 141.208L1559.66 128.892C1569.39 136.912 1579.41 141.208 1592.01 141.208C1603.18 141.208 1611.48 136.339 1611.48 128.892C1611.48 122.018 1606.62 118.008 1587.43 113.712C1565.38 108.843 1553.07 102.828 1553.07 85.3561V84.7834C1553.07 68.171 1567.67 56.7142 1588 56.7142C1603.18 56.7142 1614.92 61.0105 1625.51 69.0303L1615.78 81.9192C1606.62 75.3315 1597.45 72.1808 1587.72 72.1808C1576.84 72.1808 1569.97 77.05 1569.97 83.3513V83.924C1569.97 91.371 1575.98 94.8081 1595.74 99.1043C1617.78 103.973 1628.38 111.42 1628.38 127.173V127.746C1628.38 146.077 1613.2 156.675 1591.73 156.675C1576.27 156.388 1561.38 151.519 1548.78 141.208ZM1489.22 117.149L1452.28 58.7191H1472.61L1497.81 101.109L1523.58 58.7191H1543.05L1506.11 116.862V155.529H1488.93V117.149H1489.22ZM1396.45 58.4327H1413.63V139.489H1464.59V154.956H1396.45V58.4327ZM1347.48 116.576L1330.88 77.9092L1314.27 116.576H1347.48ZM1322.86 58.1463H1338.89L1381.84 155.243H1363.52L1353.78 132.043H1308.26L1297.95 155.243H1280.77L1322.86 58.1463ZM1240.11 74.7587H1209.47V59.2919H1288.5V74.7587H1257.86V155.243H1240.11V74.7587ZM1183.7 116.576L1167.09 77.9092L1150.49 116.576H1183.7ZM1159.08 58.1463H1175.11L1218.06 155.243H1200.31L1190.57 132.043H1145.05L1134.74 155.243H1116.7L1159.08 58.1463ZM1020.21 107.411C1020.21 79.3414 1040.54 57.0006 1070.03 57.0006C1087.78 57.0006 1098.95 63.5882 1108.11 72.1808L1097.23 84.4969C1089.21 77.6228 1081.19 72.7537 1069.74 72.7537C1051.42 72.7537 1037.39 87.9339 1037.39 106.551V107.124C1037.39 126.028 1050.84 141.494 1069.74 141.494C1081.48 141.494 1089.21 136.625 1097.8 129.178L1108.68 140.349C1098.37 150.66 1087.21 157.534 1069.45 157.534C1041.11 156.961 1020.21 134.907 1020.21 107.411ZM614.758 58.4327H631.938V139.489H682.905V154.956H614.758V58.4327ZM565.795 116.576L549.187 77.9092L532.58 116.576H565.795ZM541.17 57.5735H557.205L600.155 154.67H582.402L572.667 131.47H525.994L515.686 154.67H498.506L541.17 57.5735ZM450.975 105.692C463.287 105.692 470.732 99.1043 470.732 89.6524C470.732 79.3413 463.287 73.6129 450.975 73.6129H426.35V105.692H450.975ZM409.17 58.4327H452.693C465.005 58.4327 474.741 62.1561 480.754 68.171C485.621 73.6129 488.771 80.4871 488.771 89.0797V89.6524C488.771 105.119 479.036 114.857 465.578 119.154L491.921 155.815H471.591L447.539 122.018H426.064V155.815H408.884V58.7191H409.17V58.4327ZM314.108 58.4327H386.55V73.6129H331.288V98.8179H380.251V113.998H331.288V139.776H387.123V154.956H314.108V58.4327ZM207.878 58.4327H223.34L275.453 125.168V58.4327H292.633V154.67H278.03L224.199 85.929V154.67H207.592V58.4327H207.878ZM113.388 58.4327H185.258V73.6129H129.995V98.8179H178.958V113.998H129.995V139.776H185.83V154.956H113.388V58.4327ZM0 106.838C0 79.3413 20.9023 56.4277 49.822 56.4277C67.002 56.4277 77.31 61.2969 87.3317 69.8895L76.451 82.7784C69.0063 76.1907 61.2753 72.4673 48.963 72.4673C31.2103 72.4673 17.18 87.934 17.18 106.265V106.838C17.18 126.601 30.6377 141.208 49.822 141.208C58.9847 141.208 67.002 138.63 73.5877 133.761V115.43H47.245V100.823H90.195V141.781C80.4597 149.801 66.4293 156.961 49.822 156.961C19.757 156.388 0 134.907 0 106.838Z" fill="black"/>
<path d="M852.702 0C790.281 0 739.887 52.1284 739.887 116C739.887 179.872 790.281 232 852.702 232C915.123 232 965.517 179.872 965.517 116C965.517 112.277 965.517 108.553 964.945 104.83H852.702C846.689 104.83 841.821 109.699 841.821 116C841.821 122.301 846.689 127.17 852.702 127.17H943.47L942.897 129.462C936.598 175.002 897.943 209.946 852.702 209.946C802.307 209.946 761.362 168.128 761.362 116.573C761.362 65.0172 802.307 23.2 852.702 23.2C887.062 23.2 919.418 43.5358 934.307 75.9012H958.073C941.752 30.0741 899.947 0 852.702 0ZM854.134 49.837C818.628 49.837 790.281 77.9061 790.281 112.563C790.281 147.22 819.201 175.289 854.134 175.289C873.032 175.289 890.784 167.269 903.097 153.235H854.134C830.941 153.235 812.329 134.904 812.329 112.276C812.329 89.6493 831.227 71.3185 853.561 71.3185H902.524C890.784 58.1432 873.032 49.837 854.134 49.837Z" fill="#6D2077"/>
</svg>
