<svg width="843" height="364" viewBox="0 0 843 364" fill="none" xmlns="http://www.w3.org/2000/svg">
<path fill-rule="evenodd" clip-rule="evenodd" d="M581.38 260.611C583.152 261.3 584.699 262.467 585.85 263.981C586.882 265.439 587.412 267.194 587.36 268.981C587.413 270.232 587.203 271.48 586.743 272.644C586.283 273.809 585.583 274.864 584.69 275.741C582.882 277.266 580.628 278.162 578.267 278.294C575.905 278.425 573.565 277.785 571.6 276.471C569.93 275.168 568.769 273.321 568.32 271.251L571.6 269.631C571.9 271.21 572.662 272.664 573.79 273.811C574.831 274.768 576.206 275.278 577.62 275.231C579.233 275.303 580.812 274.743 582.02 273.671C582.574 273.15 583.011 272.516 583.301 271.812C583.591 271.109 583.727 270.351 583.7 269.591C583.725 268.309 583.313 267.056 582.53 266.041C581.579 264.913 580.362 264.041 578.99 263.501L575.29 261.921C573.519 261.262 571.961 260.135 570.78 258.661C569.77 257.275 569.246 255.595 569.29 253.881C569.269 252.866 569.474 251.859 569.891 250.934C570.308 250.008 570.926 249.187 571.7 248.531C573.414 247.082 575.607 246.326 577.85 246.411C579.505 246.368 581.141 246.769 582.59 247.571C583.952 248.376 585.042 249.57 585.72 251.001L582.72 252.911C582.164 251.873 581.381 250.974 580.43 250.281C579.586 249.709 578.588 249.409 577.57 249.421C576.959 249.395 576.35 249.493 575.778 249.708C575.206 249.922 574.683 250.25 574.24 250.671C573.812 251.078 573.475 251.57 573.251 252.117C573.027 252.663 572.921 253.25 572.94 253.841C572.923 254.867 573.278 255.866 573.94 256.651C574.802 257.572 575.862 258.286 577.04 258.741L581.38 260.611ZM526.38 250.151V260.321H529.14C531.96 260.321 533.85 259.957 534.81 259.231C535.76 258.511 536.24 257.231 536.24 255.421C536.24 253.611 535.75 252.101 534.77 251.321C533.79 250.541 531.91 250.151 529.14 250.151H526.38ZM522.85 277.501V247.101H530C531.501 247.053 533.003 247.167 534.48 247.441C535.385 247.653 536.237 248.051 536.98 248.611C537.911 249.362 538.634 250.34 539.08 251.451C539.585 252.699 539.836 254.035 539.82 255.381C539.894 256.421 539.747 257.464 539.388 258.444C539.03 259.423 538.468 260.315 537.74 261.061C536.346 262.354 534.306 263.001 531.62 263.001H531L542.61 277.501H538L526.91 263.001H526.39V277.501H522.85ZM476 277.501V247.101H492V250.401H479.62V259.121H492V262.481H479.62V274.131H492V277.501H476ZM418.35 277.501V245.891L440.59 270.191V247.101H444.04V278.681L421.8 254.681V277.501H418.35ZM377.42 277.501V250.501H368.82V247.101H389.63V250.541H381.07V277.541L377.42 277.501ZM328.18 250.151V260.321H331C333.82 260.321 335.71 259.957 336.67 259.231C337.62 258.511 338.1 257.231 338.1 255.421C338.1 253.611 337.61 252.101 336.63 251.321C335.65 250.541 333.77 250.151 331 250.151H328.18ZM324.65 277.501V247.101H331.79C333.291 247.053 334.793 247.167 336.27 247.441C337.175 247.653 338.027 248.051 338.77 248.611C339.701 249.362 340.424 250.34 340.87 251.451C341.375 252.699 341.626 254.035 341.61 255.381C341.684 256.421 341.537 257.464 341.178 258.444C340.82 259.423 340.258 260.315 339.53 261.061C338.136 262.354 336.096 263.001 333.41 263.001H332.77L344.38 277.501H339.8L328.71 263.001H328.19V277.501H324.65ZM283 245.891L296.83 277.501H292.9L289 268.171H277.08L273.13 277.501H269.21L283 245.891ZM283 253.891L278.16 265.081H287.84L283 253.891ZM233 260.571H234.83C237.93 260.571 240.016 260.207 241.09 259.481C242.16 258.761 242.7 257.481 242.7 255.671C242.7 253.861 242.15 252.371 241.05 251.581C239.95 250.791 237.87 250.401 234.83 250.401H233V260.571ZM233 263.861V277.501H229.47V247.101H235.85C237.497 247.052 239.146 247.169 240.77 247.451C241.75 247.653 242.681 248.048 243.51 248.611C244.511 249.337 245.296 250.322 245.78 251.461C246.319 252.725 246.598 254.086 246.598 255.461C246.598 256.835 246.319 258.196 245.78 259.461C245.293 260.597 244.509 261.582 243.51 262.311C242.688 262.882 241.759 263.283 240.78 263.491C239.153 263.778 237.501 263.899 235.85 263.851L233 263.861Z" fill="#7D7E81"/>
<path fill-rule="evenodd" clip-rule="evenodd" d="M137.76 88.9102V91.3502H121.6V210.52H137.76V212.96H79.9502V210.52H96.1102V91.3502H79.9502V88.9102H137.76Z" fill="#F77800"/>
<path fill-rule="evenodd" clip-rule="evenodd" d="M166.78 88.8906L224.53 171.881H224.88V91.3306H208.92V88.8906H243.6V91.3306H227.65V213.031H222.97L144.93 101.271H144.58V210.591H160.53V213.031H125.85V210.591H141.81V91.3306H125.85V88.8906H166.78Z" fill="#F77800"/>
<path fill-rule="evenodd" clip-rule="evenodd" d="M248.25 174.999C248.49 176.432 248.903 178.306 249.49 180.619C250.158 183.173 251.018 185.673 252.06 188.099C253.263 190.933 254.68 193.671 256.3 196.289C258.055 199.129 260.165 201.733 262.58 204.039C264.905 206.467 267.553 208.563 270.45 210.269C272.738 211.592 275.175 212.639 277.71 213.389C279.837 214.013 282.034 214.372 284.25 214.459C286.31 214.519 288.25 214.549 290 214.549C296.253 214.549 301.383 213.569 305.39 211.609C309.035 209.927 312.265 207.462 314.85 204.389C317.044 201.735 318.698 198.678 319.72 195.389C320.582 192.71 321.057 189.922 321.13 187.109C321.274 183.248 320.177 179.442 318 176.249C315.814 173.299 313.004 170.867 309.77 169.129C306.063 167.112 302.151 165.499 298.1 164.319L284.65 160.319C280.083 158.968 275.596 157.362 271.21 155.509C266.976 153.751 263.04 151.349 259.54 148.389C256.064 145.419 253.259 141.745 251.31 137.609C249.243 133.342 248.21 128.009 248.21 121.609C248.214 116.856 249.305 112.166 251.4 107.899C253.553 103.467 256.556 99.5019 260.24 96.2291C264.241 92.7004 268.84 89.9134 273.82 87.9991C279.259 85.882 285.053 84.823 290.89 84.8791C294.342 84.8496 297.785 85.2255 301.15 85.9991C304.09 86.7091 306.69 87.4491 308.93 88.2291C311.17 89.0091 313.14 89.7391 314.85 90.4491C316.326 91.1135 317.921 91.4772 319.54 91.5191C321.19 91.5191 322.28 91.2491 322.81 90.7191C323.546 89.8491 324.118 88.853 324.5 87.7791H327.33V121.619H325C323.58 117.472 322.073 113.376 320.48 109.329C318.961 105.4 316.909 101.698 314.38 98.3291C311.87 95.0316 308.669 92.3246 305 90.3991C301.22 88.3991 296.443 87.3991 290.67 87.3991C286.428 87.3373 282.209 88.0141 278.2 89.3991C274.872 90.5504 271.784 92.3028 269.09 94.5691C266.745 96.5391 264.82 98.9604 263.43 101.689C262.148 104.163 261.463 106.903 261.43 109.689C261.315 113.412 262.504 117.058 264.79 119.999C267.159 122.876 270.076 125.255 273.37 126.999C277.228 129.097 281.289 130.799 285.49 132.079C290.03 133.506 294.696 134.989 299.49 136.529C304.283 138.069 308.95 139.762 313.49 141.609C317.851 143.335 321.935 145.694 325.61 148.609C329.117 151.469 332.018 155.002 334.14 158.999C336.32 162.999 337.41 167.999 337.41 173.999C337.433 179.709 336.226 185.358 333.87 190.559C331.518 195.773 328.113 200.444 323.87 204.279C319.357 208.314 314.14 211.484 308.48 213.629C302.12 216.012 295.371 217.189 288.58 217.099C284.929 217.088 281.288 216.719 277.71 215.999C274.11 215.286 270.746 214.542 267.62 213.769C264.493 212.996 261.723 212.256 259.31 211.549C257.564 210.958 255.749 210.598 253.91 210.479C252.679 210.376 251.446 210.655 250.38 211.279C249.441 212.18 248.766 213.322 248.43 214.579H245.6V174.999H248.25Z" fill="#F77800"/>
<path fill-rule="evenodd" clip-rule="evenodd" d="M397.28 88.8906V91.3306H381.1V210.591H397.28V213.031H339.4V210.591H355.59V91.3306H339.4V88.8906H397.28Z" fill="#F77800"/>
<path fill-rule="evenodd" clip-rule="evenodd" d="M501.31 124.069C498.317 112.429 493.834 103.376 487.86 96.909C481.887 90.4424 473.904 87.2657 463.91 87.379C455.977 87.379 449.6 88.9524 444.78 92.099C440.051 95.1347 436.213 99.3727 433.66 104.379C430.968 109.797 429.248 115.646 428.58 121.659C427.769 128.188 427.365 134.76 427.37 141.339V156.839C427.236 165.966 427.929 175.087 429.44 184.089C430.82 191.422 432.974 197.359 435.9 201.899C438.61 206.225 442.582 209.614 447.28 211.609C452.572 213.687 458.227 214.687 463.91 214.549C469.19 214.549 473.384 213.569 476.49 211.609C479.58 209.669 482.058 206.896 483.64 203.609C485.415 199.833 486.496 195.768 486.83 191.609C487.29 186.982 487.52 181.936 487.52 176.469V169.699H469.77V167.209H523V169.699H511.8V210.489H508.7C508.627 209.851 508.409 209.238 508.062 208.697C507.716 208.156 507.25 207.702 506.7 207.369C505.578 206.703 504.295 206.357 502.99 206.369C500.286 206.361 497.611 206.937 495.15 208.059L487.15 211.719C483.932 213.155 480.622 214.375 477.24 215.369C472.842 216.558 468.295 217.107 463.74 216.999C455.376 217.006 447.102 215.276 439.44 211.919C431.759 208.63 424.769 203.917 418.84 198.029C412.854 192.055 408.031 185.018 404.62 177.279C400.997 168.853 399.18 159.761 399.285 150.589C399.39 141.418 401.415 132.37 405.23 124.029C408.969 116.145 414.14 109.024 420.48 103.029C426.524 97.3192 433.564 92.7671 441.25 89.599C448.364 86.5631 456.006 84.9592 463.74 84.879C467.103 84.8712 470.456 85.23 473.74 85.949C476.96 86.6557 479.96 87.399 482.74 88.179C485.52 88.959 487.994 89.699 490.16 90.399C491.93 91.04 493.789 91.4011 495.67 91.469C496.876 91.5713 498.083 91.2914 499.12 90.669C499.989 89.8666 500.636 88.8541 501 87.729H503.93V124.069H501.35" fill="#F77800"/>
<path fill-rule="evenodd" clip-rule="evenodd" d="M577.55 91.3306H561.19V148.521H612.59V91.3306H596.23V88.8906H654.75V91.3306H638.38V210.591H654.75V213.031H596.23V210.591H612.59V150.961H561.19V210.591H577.55V213.031H519.03V210.591H535.39V91.3306H519.03V88.8906H577.55V91.3306Z" fill="#F77800"/>
<path fill-rule="evenodd" clip-rule="evenodd" d="M688.73 91.3702C684.846 91.3201 680.972 91.7637 677.2 92.6902C673.876 93.5405 670.775 95.0994 668.11 97.2602C665.156 99.7612 662.723 102.819 660.95 106.26C658.52 110.967 656.587 115.913 655.18 121.02H652.91V88.9102H762.48V121.06H760.21C758.802 115.955 756.872 111.009 754.45 106.3C752.671 102.861 750.235 99.8033 747.28 97.3002C744.615 95.1394 741.514 93.5805 738.19 92.7302C734.418 91.8037 730.544 91.3601 726.66 91.4102H720.37V211.53H736.44V214H679V211.54H695V91.3702H688.7" fill="#F77800"/>
<path fill-rule="evenodd" clip-rule="evenodd" d="M137.76 88.9102V91.3502H121.6V210.52H137.76V212.96H79.9502V210.52H96.1102V91.3502H79.9502V88.9102H137.76Z" fill="#F77800"/>
<path fill-rule="evenodd" clip-rule="evenodd" d="M166.78 88.8906L224.53 171.881H224.88V91.3306H208.92V88.8906H243.6V91.3306H227.65V213.031H222.97L144.93 101.271H144.58V210.591H160.53V213.031H125.85V210.591H141.81V91.3306H125.85V88.8906H166.78Z" fill="#F77800"/>
<path fill-rule="evenodd" clip-rule="evenodd" d="M248.25 174.999C248.49 176.432 248.903 178.306 249.49 180.619C250.158 183.173 251.018 185.673 252.06 188.099C253.263 190.933 254.68 193.671 256.3 196.289C258.055 199.129 260.165 201.733 262.58 204.039C264.905 206.467 267.553 208.563 270.45 210.269C272.738 211.592 275.175 212.639 277.71 213.389C279.837 214.013 282.034 214.372 284.25 214.459C286.31 214.519 288.25 214.549 290 214.549C296.253 214.549 301.383 213.569 305.39 211.609C309.035 209.927 312.265 207.462 314.85 204.389C317.044 201.735 318.698 198.678 319.72 195.389C320.582 192.71 321.057 189.922 321.13 187.109C321.274 183.248 320.177 179.442 318 176.249C315.814 173.299 313.004 170.867 309.77 169.129C306.063 167.112 302.151 165.499 298.1 164.319L284.65 160.319C280.083 158.968 275.596 157.362 271.21 155.509C266.976 153.751 263.04 151.349 259.54 148.389C256.064 145.419 253.259 141.745 251.31 137.609C249.243 133.342 248.21 128.009 248.21 121.609C248.214 116.856 249.305 112.166 251.4 107.899C253.553 103.467 256.556 99.5019 260.24 96.2291C264.241 92.7004 268.84 89.9134 273.82 87.9991C279.259 85.882 285.053 84.823 290.89 84.8791C294.342 84.8496 297.785 85.2255 301.15 85.9991C304.09 86.7091 306.69 87.4491 308.93 88.2291C311.17 89.0091 313.14 89.7391 314.85 90.4491C316.326 91.1135 317.921 91.4772 319.54 91.5191C321.19 91.5191 322.28 91.2491 322.81 90.7191C323.546 89.8491 324.118 88.853 324.5 87.7791H327.33V121.619H325C323.58 117.472 322.073 113.376 320.48 109.329C318.961 105.4 316.909 101.698 314.38 98.3291C311.87 95.0316 308.669 92.3246 305 90.3991C301.22 88.3991 296.443 87.3991 290.67 87.3991C286.428 87.3373 282.209 88.0141 278.2 89.3991C274.872 90.5504 271.784 92.3028 269.09 94.5691C266.745 96.5391 264.82 98.9604 263.43 101.689C262.148 104.163 261.463 106.903 261.43 109.689C261.315 113.412 262.504 117.058 264.79 119.999C267.159 122.876 270.076 125.255 273.37 126.999C277.228 129.097 281.289 130.799 285.49 132.079C290.03 133.506 294.696 134.989 299.49 136.529C304.283 138.069 308.95 139.762 313.49 141.609C317.851 143.335 321.935 145.694 325.61 148.609C329.117 151.469 332.018 155.002 334.14 158.999C336.32 162.999 337.41 167.999 337.41 173.999C337.433 179.709 336.226 185.358 333.87 190.559C331.518 195.773 328.113 200.444 323.87 204.279C319.357 208.314 314.14 211.484 308.48 213.629C302.12 216.012 295.371 217.189 288.58 217.099C284.929 217.088 281.288 216.719 277.71 215.999C274.11 215.286 270.746 214.542 267.62 213.769C264.493 212.996 261.723 212.256 259.31 211.549C257.564 210.958 255.749 210.598 253.91 210.479C252.679 210.376 251.446 210.655 250.38 211.279C249.441 212.18 248.766 213.322 248.43 214.579H245.6V174.999H248.25Z" fill="#F77800"/>
<path fill-rule="evenodd" clip-rule="evenodd" d="M397.28 88.8906V91.3306H381.1V210.591H397.28V213.031H339.4V210.591H355.59V91.3306H339.4V88.8906H397.28Z" fill="#F77800"/>
<path fill-rule="evenodd" clip-rule="evenodd" d="M501.31 124.069C498.317 112.429 493.834 103.376 487.86 96.909C481.887 90.4424 473.904 87.2657 463.91 87.379C455.977 87.379 449.6 88.9524 444.78 92.099C440.051 95.1347 436.213 99.3727 433.66 104.379C430.968 109.797 429.248 115.646 428.58 121.659C427.769 128.188 427.365 134.76 427.37 141.339V156.839C427.236 165.966 427.929 175.087 429.44 184.089C430.82 191.422 432.974 197.359 435.9 201.899C438.61 206.225 442.582 209.614 447.28 211.609C452.572 213.687 458.227 214.687 463.91 214.549C469.19 214.549 473.384 213.569 476.49 211.609C479.58 209.669 482.058 206.896 483.64 203.609C485.415 199.833 486.496 195.768 486.83 191.609C487.29 186.982 487.52 181.936 487.52 176.469V169.699H469.77V167.209H523V169.699H511.8V210.489H508.7C508.627 209.851 508.409 209.238 508.062 208.697C507.716 208.156 507.25 207.702 506.7 207.369C505.578 206.703 504.295 206.357 502.99 206.369C500.286 206.361 497.611 206.937 495.15 208.059L487.15 211.719C483.932 213.155 480.622 214.375 477.24 215.369C472.842 216.558 468.295 217.107 463.74 216.999C455.376 217.006 447.102 215.276 439.44 211.919C431.759 208.63 424.769 203.917 418.84 198.029C412.854 192.055 408.031 185.018 404.62 177.279C400.997 168.853 399.18 159.761 399.285 150.589C399.39 141.418 401.415 132.37 405.23 124.029C408.969 116.145 414.14 109.024 420.48 103.029C426.524 97.3192 433.564 92.7671 441.25 89.599C448.364 86.5631 456.006 84.9592 463.74 84.879C467.103 84.8712 470.456 85.23 473.74 85.949C476.96 86.6557 479.96 87.399 482.74 88.179C485.52 88.959 487.994 89.699 490.16 90.399C491.93 91.04 493.789 91.4011 495.67 91.469C496.876 91.5713 498.083 91.2914 499.12 90.669C499.989 89.8666 500.636 88.8541 501 87.729H503.93V124.069H501.35" fill="#F77800"/>
<path fill-rule="evenodd" clip-rule="evenodd" d="M577.55 91.3306H561.19V148.521H612.59V91.3306H596.23V88.8906H654.75V91.3306H638.38V210.591H654.75V213.031H596.23V210.591H612.59V150.961H561.19V210.591H577.55V213.031H519.03V210.591H535.39V91.3306H519.03V88.8906H577.55V91.3306Z" fill="#F77800"/>
<path fill-rule="evenodd" clip-rule="evenodd" d="M688.73 91.3702C684.846 91.3201 680.972 91.7637 677.2 92.6902C673.876 93.5405 670.775 95.0994 668.11 97.2602C665.156 99.7612 662.723 102.819 660.95 106.26C658.52 110.967 656.587 115.913 655.18 121.02H652.91V88.9102H762.48V121.06H760.21C758.802 115.955 756.872 111.009 754.45 106.3C752.671 102.861 750.235 99.8033 747.28 97.3002C744.615 95.1394 741.514 93.5805 738.19 92.7302C734.418 91.8037 730.544 91.3601 726.66 91.4102H720.37V211.53H736.44V214H679V211.54H695V91.3702H688.7" fill="#F77800"/>
<path fill-rule="evenodd" clip-rule="evenodd" d="M137.76 88.9102V91.3502H121.6V210.52H137.76V212.96H79.9502V210.52H96.1102V91.3502H79.9502V88.9102H137.76Z" fill="#F77800"/>
<path fill-rule="evenodd" clip-rule="evenodd" d="M166.78 88.8906L224.53 171.881H224.88V91.3306H208.92V88.8906H243.6V91.3306H227.65V213.031H222.97L144.93 101.271H144.58V210.591H160.53V213.031H125.85V210.591H141.81V91.3306H125.85V88.8906H166.78Z" fill="#F77800"/>
<path fill-rule="evenodd" clip-rule="evenodd" d="M248.25 174.999C248.49 176.432 248.903 178.306 249.49 180.619C250.158 183.173 251.018 185.673 252.06 188.099C253.263 190.933 254.68 193.671 256.3 196.289C258.055 199.129 260.165 201.733 262.58 204.039C264.905 206.467 267.553 208.563 270.45 210.269C272.738 211.592 275.175 212.639 277.71 213.389C279.837 214.013 282.034 214.372 284.25 214.459C286.31 214.519 288.25 214.549 290 214.549C296.253 214.549 301.383 213.569 305.39 211.609C309.035 209.927 312.265 207.462 314.85 204.389C317.044 201.735 318.698 198.678 319.72 195.389C320.582 192.71 321.057 189.922 321.13 187.109C321.274 183.248 320.177 179.442 318 176.249C315.814 173.299 313.004 170.867 309.77 169.129C306.063 167.112 302.151 165.499 298.1 164.319L284.65 160.319C280.083 158.968 275.596 157.362 271.21 155.509C266.976 153.751 263.04 151.349 259.54 148.389C256.064 145.419 253.259 141.745 251.31 137.609C249.243 133.342 248.21 128.009 248.21 121.609C248.214 116.856 249.305 112.166 251.4 107.899C253.553 103.467 256.556 99.5019 260.24 96.2291C264.241 92.7004 268.84 89.9134 273.82 87.9991C279.259 85.882 285.053 84.823 290.89 84.8791C294.342 84.8496 297.785 85.2255 301.15 85.9991C304.09 86.7091 306.69 87.4491 308.93 88.2291C311.17 89.0091 313.14 89.7391 314.85 90.4491C316.326 91.1135 317.921 91.4772 319.54 91.5191C321.19 91.5191 322.28 91.2491 322.81 90.7191C323.546 89.8491 324.118 88.853 324.5 87.7791H327.33V121.619H325C323.58 117.472 322.073 113.376 320.48 109.329C318.961 105.4 316.909 101.698 314.38 98.3291C311.87 95.0316 308.669 92.3246 305 90.3991C301.22 88.3991 296.443 87.3991 290.67 87.3991C286.428 87.3373 282.209 88.0141 278.2 89.3991C274.872 90.5504 271.784 92.3028 269.09 94.5691C266.745 96.5391 264.82 98.9604 263.43 101.689C262.148 104.163 261.463 106.903 261.43 109.689C261.315 113.412 262.504 117.058 264.79 119.999C267.159 122.876 270.076 125.255 273.37 126.999C277.228 129.097 281.289 130.799 285.49 132.079C290.03 133.506 294.696 134.989 299.49 136.529C304.283 138.069 308.95 139.762 313.49 141.609C317.851 143.335 321.935 145.694 325.61 148.609C329.117 151.469 332.018 155.002 334.14 158.999C336.32 162.999 337.41 167.999 337.41 173.999C337.433 179.709 336.226 185.358 333.87 190.559C331.518 195.773 328.113 200.444 323.87 204.279C319.357 208.314 314.14 211.484 308.48 213.629C302.12 216.012 295.371 217.189 288.58 217.099C284.929 217.088 281.288 216.719 277.71 215.999C274.11 215.286 270.746 214.542 267.62 213.769C264.493 212.996 261.723 212.256 259.31 211.549C257.564 210.958 255.749 210.598 253.91 210.479C252.679 210.376 251.446 210.655 250.38 211.279C249.441 212.18 248.766 213.322 248.43 214.579H245.6V174.999H248.25Z" fill="#F77800"/>
<path fill-rule="evenodd" clip-rule="evenodd" d="M397.28 88.8906V91.3306H381.1V210.591H397.28V213.031H339.4V210.591H355.59V91.3306H339.4V88.8906H397.28Z" fill="#F77800"/>
<path fill-rule="evenodd" clip-rule="evenodd" d="M501.31 124.069C498.317 112.429 493.834 103.376 487.86 96.909C481.887 90.4424 473.904 87.2657 463.91 87.379C455.977 87.379 449.6 88.9524 444.78 92.099C440.051 95.1347 436.213 99.3727 433.66 104.379C430.968 109.797 429.248 115.646 428.58 121.659C427.769 128.188 427.365 134.76 427.37 141.339V156.839C427.236 165.966 427.929 175.087 429.44 184.089C430.82 191.422 432.974 197.359 435.9 201.899C438.61 206.225 442.582 209.614 447.28 211.609C452.572 213.687 458.227 214.687 463.91 214.549C469.19 214.549 473.384 213.569 476.49 211.609C479.58 209.669 482.058 206.896 483.64 203.609C485.415 199.833 486.496 195.768 486.83 191.609C487.29 186.982 487.52 181.936 487.52 176.469V169.699H469.77V167.209H523V169.699H511.8V210.489H508.7C508.627 209.851 508.409 209.238 508.062 208.697C507.716 208.156 507.25 207.702 506.7 207.369C505.578 206.703 504.295 206.357 502.99 206.369C500.286 206.361 497.611 206.937 495.15 208.059L487.15 211.719C483.932 213.155 480.622 214.375 477.24 215.369C472.842 216.558 468.295 217.107 463.74 216.999C455.376 217.006 447.102 215.276 439.44 211.919C431.759 208.63 424.769 203.917 418.84 198.029C412.854 192.055 408.031 185.018 404.62 177.279C400.997 168.853 399.18 159.761 399.285 150.589C399.39 141.418 401.415 132.37 405.23 124.029C408.969 116.145 414.14 109.024 420.48 103.029C426.524 97.3192 433.564 92.7671 441.25 89.599C448.364 86.5631 456.006 84.9592 463.74 84.879C467.103 84.8712 470.456 85.23 473.74 85.949C476.96 86.6557 479.96 87.399 482.74 88.179C485.52 88.959 487.994 89.699 490.16 90.399C491.93 91.04 493.789 91.4011 495.67 91.469C496.876 91.5713 498.083 91.2914 499.12 90.669C499.989 89.8666 500.636 88.8541 501 87.729H503.93V124.069H501.35" fill="#F77800"/>
<path fill-rule="evenodd" clip-rule="evenodd" d="M577.55 91.3306H561.19V148.521H612.59V91.3306H596.23V88.8906H654.75V91.3306H638.38V210.591H654.75V213.031H596.23V210.591H612.59V150.961H561.19V210.591H577.55V213.031H519.03V210.591H535.39V91.3306H519.03V88.8906H577.55V91.3306Z" fill="#F77800"/>
<path fill-rule="evenodd" clip-rule="evenodd" d="M688.73 91.3702C684.846 91.3201 680.972 91.7637 677.2 92.6902C673.876 93.5405 670.775 95.0994 668.11 97.2602C665.156 99.7612 662.723 102.819 660.95 106.26C658.52 110.967 656.587 115.913 655.18 121.02H652.91V88.9102H762.48V121.06H760.21C758.802 115.955 756.872 111.009 754.45 106.3C752.671 102.861 750.235 99.8033 747.28 97.3002C744.615 95.1394 741.514 93.5805 738.19 92.7302C734.418 91.8037 730.544 91.3601 726.66 91.4102H720.37V211.53H736.44V214H679V211.54H695V91.3702H688.7" fill="#F77800"/>
<path d="M623.78 262.17H737.78" stroke="#7D7E81" stroke-width="2" stroke-miterlimit="10"/>
<path d="M80 262.17H193" stroke="#7D7E81" stroke-width="2" stroke-miterlimit="10"/>
</svg>
