<svg width="2259" height="484" viewBox="0 0 2259 484" fill="none" xmlns="http://www.w3.org/2000/svg">
<path d="M194.318 168.818C192.614 154.424 185.701 143.25 173.58 135.295C161.458 127.341 146.591 123.364 128.977 123.364C116.098 123.364 104.83 125.447 95.1705 129.614C85.6061 133.78 78.125 139.509 72.7273 146.801C67.4242 154.093 64.7727 162.379 64.7727 171.659C64.7727 179.424 66.6193 186.1 70.3125 191.688C74.1004 197.18 78.9299 201.773 84.8011 205.466C90.6723 209.064 96.8277 212.047 103.267 214.415C109.706 216.687 115.625 218.534 121.023 219.955L150.568 227.909C158.144 229.898 166.572 232.644 175.852 236.148C185.227 239.652 194.176 244.434 202.699 250.494C211.316 256.46 218.419 264.131 224.006 273.506C229.593 282.881 232.386 294.386 232.386 308.023C232.386 323.742 228.267 337.947 220.028 350.636C211.884 363.326 199.953 373.411 184.233 380.892C168.608 388.373 149.621 392.114 127.273 392.114C106.439 392.114 88.3996 388.752 73.1534 382.028C58.0019 375.305 46.0701 365.93 37.358 353.903C28.7405 341.877 23.8636 327.909 22.7273 312H59.0909C60.0379 322.985 63.7311 332.076 70.1705 339.273C76.7045 346.375 84.9432 351.678 94.8864 355.182C104.924 358.591 115.72 360.295 127.273 360.295C140.72 360.295 152.794 358.117 163.494 353.761C174.195 349.311 182.67 343.155 188.92 335.295C195.17 327.341 198.295 318.061 198.295 307.455C198.295 297.795 195.597 289.936 190.199 283.875C184.801 277.814 177.699 272.89 168.892 269.102C160.085 265.314 150.568 262 140.341 259.159L104.545 248.932C81.8182 242.398 63.8258 233.07 50.5682 220.949C37.3106 208.828 30.6818 192.966 30.6818 173.364C30.6818 157.076 35.0852 142.871 43.892 130.75C52.7936 118.534 64.7254 109.064 79.6875 102.341C94.7443 95.5227 111.553 92.1136 130.114 92.1136C148.864 92.1136 165.53 95.4754 180.114 102.199C194.697 108.828 206.25 117.919 214.773 129.472C223.39 141.025 227.936 154.14 228.409 168.818H194.318ZM349.964 392.114C336.139 392.114 323.591 389.509 312.322 384.301C301.054 378.998 292.105 371.375 285.476 361.432C278.847 351.394 275.533 339.273 275.533 325.068C275.533 312.568 277.995 302.436 282.919 294.67C287.843 286.811 294.425 280.655 302.663 276.205C310.902 271.754 319.993 268.439 329.936 266.261C339.974 263.989 350.059 262.189 360.192 260.864C373.449 259.159 384.197 257.881 392.436 257.028C400.769 256.081 406.83 254.519 410.618 252.341C414.5 250.163 416.442 246.375 416.442 240.977V239.841C416.442 225.826 412.607 214.936 404.936 207.17C397.36 199.405 385.855 195.523 370.419 195.523C354.415 195.523 341.868 199.027 332.777 206.034C323.686 213.042 317.294 220.523 313.601 228.477L281.783 217.114C287.464 203.856 295.04 193.534 304.51 186.148C314.074 178.667 324.491 173.458 335.76 170.523C347.124 167.492 358.298 165.977 369.283 165.977C376.29 165.977 384.339 166.83 393.43 168.534C402.616 170.144 411.47 173.506 419.993 178.619C428.61 183.733 435.76 191.451 441.442 201.773C447.124 212.095 449.964 225.92 449.964 243.25V387H416.442V357.455H414.737C412.464 362.189 408.677 367.256 403.374 372.653C398.071 378.051 391.016 382.644 382.209 386.432C373.402 390.22 362.654 392.114 349.964 392.114ZM355.078 362C368.336 362 379.51 359.396 388.601 354.188C397.786 348.979 404.699 342.256 409.339 334.017C414.074 325.778 416.442 317.114 416.442 308.023V277.341C415.021 279.045 411.896 280.608 407.067 282.028C402.332 283.354 396.839 284.538 390.589 285.58C384.434 286.527 378.421 287.379 372.55 288.136C366.773 288.799 362.086 289.367 358.487 289.841C349.775 290.977 341.631 292.824 334.055 295.381C326.574 297.843 320.514 301.583 315.874 306.602C311.328 311.527 309.055 318.25 309.055 326.773C309.055 338.42 313.364 347.227 321.982 353.193C330.694 359.064 341.726 362 355.078 362ZM511.151 387V168.818H543.537V202.909H546.378C550.923 191.261 558.262 182.218 568.395 175.778C578.527 169.244 590.696 165.977 604.901 165.977C619.295 165.977 631.274 169.244 640.838 175.778C650.497 182.218 658.026 191.261 663.423 202.909H665.696C671.283 191.64 679.664 182.691 690.838 176.062C702.012 169.339 715.412 165.977 731.037 165.977C750.545 165.977 766.501 172.085 778.906 184.301C791.312 196.422 797.514 215.314 797.514 240.977V387H763.991V240.977C763.991 224.879 759.588 213.373 750.781 206.46C741.974 199.547 731.605 196.091 719.673 196.091C704.332 196.091 692.448 200.731 684.02 210.011C675.592 219.197 671.378 230.845 671.378 244.955V387H637.287V237.568C637.287 225.163 633.262 215.172 625.213 207.597C617.164 199.926 606.795 196.091 594.105 196.091C585.393 196.091 577.249 198.411 569.673 203.051C562.192 207.691 556.132 214.131 551.491 222.369C546.946 230.513 544.673 239.936 544.673 250.636V387H511.151ZM987.784 387H950.852L1057.67 96.0909H1094.03L1200.85 387H1163.92L1076.99 142.114H1074.72L987.784 387ZM1001.42 273.364H1150.28V304.614H1001.42V273.364ZM1275.14 96.0909V387H1241.62V96.0909H1275.14ZM1431.43 168.818V197.227H1318.36V168.818H1431.43ZM1351.31 116.545H1384.84V324.5C1384.84 333.97 1386.21 341.072 1388.96 345.807C1391.8 350.447 1395.4 353.572 1399.75 355.182C1404.2 356.697 1408.89 357.455 1413.81 357.455C1417.51 357.455 1420.54 357.265 1422.9 356.886C1425.27 356.413 1427.17 356.034 1428.59 355.75L1435.4 385.864C1433.13 386.716 1429.96 387.568 1425.89 388.42C1421.82 389.367 1416.65 389.841 1410.4 389.841C1400.94 389.841 1391.65 387.805 1382.56 383.733C1373.57 379.661 1366.09 373.458 1360.12 365.125C1354.25 356.792 1351.31 346.28 1351.31 333.591V116.545ZM1481.85 387V168.818H1514.24V202.909H1517.08C1521.63 191.261 1528.97 182.218 1539.1 175.778C1549.23 169.244 1561.4 165.977 1575.6 165.977C1590 165.977 1601.98 169.244 1611.54 175.778C1621.2 182.218 1628.73 191.261 1634.13 202.909H1636.4C1641.99 191.64 1650.37 182.691 1661.54 176.062C1672.72 169.339 1686.12 165.977 1701.74 165.977C1721.25 165.977 1737.2 172.085 1749.61 184.301C1762.01 196.422 1768.22 215.314 1768.22 240.977V387H1734.69V240.977C1734.69 224.879 1730.29 213.373 1721.48 206.46C1712.68 199.547 1702.31 196.091 1690.38 196.091C1675.04 196.091 1663.15 200.731 1654.72 210.011C1646.29 219.197 1642.08 230.845 1642.08 244.955V387H1607.99V237.568C1607.99 225.163 1603.97 215.172 1595.92 207.597C1587.87 199.926 1577.5 196.091 1564.81 196.091C1556.1 196.091 1547.95 198.411 1540.38 203.051C1532.9 207.691 1526.83 214.131 1522.19 222.369C1517.65 230.513 1515.38 239.936 1515.38 250.636V387H1481.85ZM1893.71 392.114C1879.89 392.114 1867.34 389.509 1856.07 384.301C1844.8 378.998 1835.85 371.375 1829.23 361.432C1822.6 351.394 1819.28 339.273 1819.28 325.068C1819.28 312.568 1821.74 302.436 1826.67 294.67C1831.59 286.811 1838.17 280.655 1846.41 276.205C1854.65 271.754 1863.74 268.439 1873.69 266.261C1883.72 263.989 1893.81 262.189 1903.94 260.864C1917.2 259.159 1927.95 257.881 1936.19 257.028C1944.52 256.081 1950.58 254.519 1954.37 252.341C1958.25 250.163 1960.19 246.375 1960.19 240.977V239.841C1960.19 225.826 1956.36 214.936 1948.69 207.17C1941.11 199.405 1929.6 195.523 1914.17 195.523C1898.17 195.523 1885.62 199.027 1876.53 206.034C1867.44 213.042 1861.04 220.523 1857.35 228.477L1825.53 217.114C1831.21 203.856 1838.79 193.534 1848.26 186.148C1857.82 178.667 1868.24 173.458 1879.51 170.523C1890.87 167.492 1902.05 165.977 1913.03 165.977C1920.04 165.977 1928.09 166.83 1937.18 168.534C1946.37 170.144 1955.22 173.506 1963.74 178.619C1972.36 183.733 1979.51 191.451 1985.19 201.773C1990.87 212.095 1993.71 225.92 1993.71 243.25V387H1960.19V357.455H1958.49C1956.21 362.189 1952.43 367.256 1947.12 372.653C1941.82 378.051 1934.77 382.644 1925.96 386.432C1917.15 390.22 1906.4 392.114 1893.71 392.114ZM1898.83 362C1912.09 362 1923.26 359.396 1932.35 354.188C1941.54 348.979 1948.45 342.256 1953.09 334.017C1957.82 325.778 1960.19 317.114 1960.19 308.023V277.341C1958.77 279.045 1955.65 280.608 1950.82 282.028C1946.08 283.354 1940.59 284.538 1934.34 285.58C1928.18 286.527 1922.17 287.379 1916.3 288.136C1910.52 288.799 1905.84 289.367 1902.24 289.841C1893.53 290.977 1885.38 292.824 1877.81 295.381C1870.32 297.843 1864.26 301.583 1859.62 306.602C1855.08 311.527 1852.81 318.25 1852.81 326.773C1852.81 338.42 1857.11 347.227 1865.73 353.193C1874.44 359.064 1885.48 362 1898.83 362ZM2088.42 255.75V387H2054.9V168.818H2087.29V202.909H2090.13C2095.24 191.83 2103.01 182.928 2113.42 176.205C2123.84 169.386 2137.29 165.977 2153.76 165.977C2168.54 165.977 2181.46 169.008 2192.54 175.068C2203.62 181.034 2212.24 190.125 2218.39 202.341C2224.55 214.462 2227.63 229.803 2227.63 248.364V387H2194.11V250.636C2194.11 233.496 2189.65 220.144 2180.75 210.58C2171.85 200.92 2159.64 196.091 2144.11 196.091C2133.4 196.091 2123.84 198.411 2115.41 203.051C2107.08 207.691 2100.5 214.462 2095.67 223.364C2090.84 232.265 2088.42 243.061 2088.42 255.75Z" fill="black"/>
</svg>
